<?xml version="1.0" encoding="UTF-8"?>
<svg version="1.1" xmlns="http://www.w3.org/2000/svg" width="1541" height="1021">
<path d="M0 0 C3 1 3 1 4.1328125 3.1171875 C8.37631265 14.91211311 9.57209543 25.85811665 4.43359375 37.5703125 C-2.40804537 51.4459332 -12.3445205 62.92432414 -23 74 C-23.51997559 74.54188965 -24.03995117 75.0837793 -24.57568359 75.64208984 C-31.6617304 82.98387367 -38.98794927 89.66586565 -47 96 C-48.2053545 96.99208909 -49.40833275 97.98706976 -50.609375 98.984375 C-60.4263832 107.11364186 -70.57136169 114.67517874 -81 122 C-81.66999023 122.47147461 -82.33998047 122.94294922 -83.03027344 123.42871094 C-87.65256605 126.67052791 -92.31232945 129.85354088 -97 133 C-98.09223877 133.73355713 -98.09223877 133.73355713 -99.20654297 134.48193359 C-113.79508019 144.22940365 -128.83642784 153.18607468 -144 162 C-144.96244629 162.56187012 -145.92489258 163.12374023 -146.91650391 163.70263672 C-193.91483294 191.0566456 -243.7814647 215.66930653 -295 234 C-296.38439418 234.49967643 -297.76866465 234.99969568 -299.15283203 235.5 C-427.79067901 281.9278618 -427.79067901 281.9278618 -471.65234375 261.62890625 C-477.65634356 257.46306944 -485.7224816 251.26794262 -487.87109375 244.08984375 C-487.91363281 243.40019531 -487.95617187 242.71054687 -488 242 C-486.948125 242.30744141 -486.948125 242.30744141 -485.875 242.62109375 C-480.23146391 244.22367397 -474.84123457 245.44894013 -469 246 C-468.82984375 245.40832031 -468.6596875 244.81664062 -468.484375 244.20703125 C-468.24203125 243.41683594 -467.9996875 242.62664062 -467.75 241.8125 C-467.51796875 241.03519531 -467.2859375 240.25789062 -467.046875 239.45703125 C-460.81141899 224.82232292 -439.17666662 218.66016032 -425.53692627 213.1269989 C-404.00373271 204.49226853 -381.94303141 197.27961183 -359.93133545 189.98120117 C-329.32063969 179.82950787 -299.64066353 167.69202594 -270 155 C-268.94103516 154.5467334 -267.88207031 154.0934668 -266.79101562 153.62646484 C-263.69203437 152.297175 -260.59548056 150.96241929 -257.5 149.625 C-256.58702148 149.2323999 -255.67404297 148.8397998 -254.73339844 148.43530273 C-249.5683742 146.19244399 -244.51485584 143.79646139 -239.49267578 141.25048828 C-237.01501638 140.00753319 -234.51997462 138.81268126 -232.01171875 137.6328125 C-209.08563716 126.84736862 -186.66077206 115.20080754 -164.70556641 102.55419922 C-161.99099525 100.99482727 -159.26840436 99.45044993 -156.54296875 97.91015625 C-130.68992723 83.27821557 -105.98055771 67.0426061 -81.3021698 50.5357666 C-77.76711186 48.1734556 -74.22259345 45.82689235 -70.6640625 43.5 C-58.38508989 35.45703314 -46.75678787 26.70454481 -35.375 17.4375 C-29.32923284 12.61515958 -24.90033283 9.52667241 -16.91796875 9.6640625 C-15 10 -15 10 -13 12 C-12.3671875 14.3828125 -12.3671875 14.3828125 -11.875 17.125 C-11.70742188 18.03507812 -11.53984375 18.94515625 -11.3671875 19.8828125 C-11.24601562 20.58148438 -11.12484375 21.28015625 -11 22 C-8.56052766 21.84110855 -8.56052766 21.84110855 -6 21 C-1.9441532 15.04488959 -1.00992487 6.98974321 0 0 Z " fill="#060E19" transform="translate(1025,417)"/>
<path d="M0 0 C-2.51281248 17.98644722 -13.18794753 29.76933479 -26 42 C-26.82242188 42.82371094 -27.64484375 43.64742188 -28.4921875 44.49609375 C-37.0830145 53.0735394 -46.28487871 60.40509115 -56.05175781 67.5703125 C-58.98219821 69.72077102 -61.89894176 71.88925352 -64.8125 74.0625 C-66.21435547 75.10083984 -66.21435547 75.10083984 -67.64453125 76.16015625 C-69.9221599 77.85106956 -69.9221599 77.85106956 -71.41796875 79.46875 C-73.85056841 81.82326621 -76.68093777 83.58491021 -79.5 85.4375 C-80.14710938 85.86562988 -80.79421875 86.29375977 -81.4609375 86.73486328 C-86.93694864 90.33947345 -92.46122539 93.86779508 -98 97.375 C-99.18239258 98.12414673 -99.18239258 98.12414673 -100.38867188 98.88842773 C-104.86780488 101.70881639 -109.3904552 104.39867675 -114 107 C-116.7979004 108.61438441 -119.58747304 110.24278014 -122.375 111.875 C-123.12523437 112.31336182 -123.87546875 112.75172363 -124.6484375 113.20336914 C-129.16394573 115.86044392 -133.54958061 118.60515514 -137.75 121.74609375 C-139.90268829 122.945769 -141.80733399 123.60933997 -144.15234375 124.3359375 C-149.34564616 125.99988809 -153.84054087 128.49281624 -158.5625 131.1875 C-177.69777789 141.84697149 -197.40045623 151.496567 -217.25 160.75 C-218.77318848 161.46542969 -218.77318848 161.46542969 -220.32714844 162.1953125 C-228.6590306 166.02759064 -237.15397385 169.48747513 -246.25 170.9375 C-249.81264163 171.55487351 -252.01457868 172.50840181 -254.9375 174.625 C-259.72387222 177.89019724 -264.38614778 177.90357085 -270 177 C-273.98603431 175.63997377 -276.48333211 173.73333507 -278.9375 170.25 C-279.4634375 169.13625 -279.4634375 169.13625 -280 168 C-275 163 -275 163 -272.3125 160.875 C-269.37881839 157.22772016 -269.2846579 154.40850015 -269.04296875 149.81640625 C-266.33913908 142.51505347 -256.54230001 138.94928053 -250 135.625 C-249.0728418 135.14659668 -248.14568359 134.66819336 -247.19042969 134.17529297 C-241.2784013 131.13362676 -235.33645714 128.15274957 -229.38085938 125.19750977 C-215.71750859 118.39818777 -202.122112 111.40819032 -188.8125 103.9375 C-188.19632813 103.59211182 -187.58015625 103.24672363 -186.9453125 102.89086914 C-184.22999701 101.34672414 -181.61192738 99.73635539 -179.02734375 97.98046875 C-175.7229431 95.81875116 -172.29964297 94.08308215 -168.75 92.375 C-156.90930199 86.55209384 -144.85975126 80.59421648 -134.3359375 72.5703125 C-132.3692788 71.24824428 -130.51979955 70.23428302 -128.3984375 69.203125 C-111.6138218 60.99964894 -96.08890912 49.93475036 -81 39 C-80.3905957 38.56316895 -79.78119141 38.12633789 -79.15332031 37.67626953 C-72.55484206 32.93973811 -66.4584673 27.85494399 -60.5078125 22.328125 C-57.79377083 19.80854738 -55.02721822 17.37503684 -52.1796875 15.0078125 C-50.38425019 13.35395089 -48.88868895 11.72311793 -47.3203125 9.8671875 C-39.87647098 1.47871458 -39.87647098 1.47871458 -34.64990234 0.60888672 C-30.30578362 0.5219537 -26.07842934 1.02884984 -21.7734375 1.55859375 C-16.5692554 2.18215051 -12.35694214 1.28396256 -7.41015625 -0.40625 C-4.60435191 -1.09746922 -2.7623328 -0.75111733 0 0 Z " fill="#060F1A" transform="translate(960,301)"/>
<path d="M0 0 C1.8515625 1.70703125 1.8515625 1.70703125 3.625 3.8125 C4.51058594 4.84310547 4.51058594 4.84310547 5.4140625 5.89453125 C6.89910579 7.86605423 7.98239206 9.75823992 9 12 C5.61398317 15.47220635 2.1232405 18.67293204 -1.625 21.75 C-2.56601562 22.52859375 -3.50703125 23.3071875 -4.4765625 24.109375 C-7 26 -7 26 -10 27 C-10.33 27.99 -10.66 28.98 -11 30 C-12.41674805 31.31176758 -12.41674805 31.31176758 -14.26171875 32.64453125 C-14.95668457 33.14903809 -15.65165039 33.65354492 -16.36767578 34.17333984 C-17.13321777 34.7142627 -17.89875977 35.25518555 -18.6875 35.8125 C-19.88995361 36.67029053 -19.88995361 36.67029053 -21.11669922 37.54541016 C-29.89946504 43.74173659 -38.96136668 49.48402856 -48.07763672 55.17333984 C-51.08001246 57.0500128 -54.07380021 58.93982391 -57.06640625 60.83203125 C-69.22496089 68.50254183 -81.49239774 75.91415861 -94 83 C-94.91136719 83.51804199 -95.82273437 84.03608398 -96.76171875 84.56982422 C-102.60480943 87.89056857 -108.45627603 91.19607327 -114.31494141 94.48925781 C-116.71620468 95.8403232 -119.11427082 97.19686947 -121.51171875 98.5546875 C-131.63469495 104.26089207 -141.91879512 109.6413043 -152.24975586 114.9597168 C-157.56397183 117.69647992 -162.86501664 120.4448786 -168.10766602 123.31640625 C-175.61049387 127.42507211 -183.33340638 130.93205568 -191.14282227 134.4152832 C-195.96661813 136.57750008 -200.65717037 138.808366 -205.25 141.4375 C-208.35992014 143.20829049 -211.16951744 144.45085932 -214.625 145.375 C-218.98363743 146.5685961 -222.94374244 148.28714895 -227 150.25 C-395.85550303 231.52266599 -395.85550303 231.52266599 -443.3125 216.6875 C-446.18425556 215.62117033 -448.07268797 214.40487607 -450 212 C-451.79043736 206.35672274 -450.86860649 201.2530339 -449.08203125 195.75 C-448 194 -448 194 -445.88671875 193.25 C-445.26410156 193.1675 -444.64148438 193.085 -444 193 C-443.62875 193.78375 -443.2575 194.5675 -442.875 195.375 C-440.4741186 198.73623396 -439.01312022 199.16708826 -435 200 C-376.41817771 201.98582448 -305.89533953 160.48438175 -254.05064392 135.8611908 C-247.4948302 132.75155113 -240.90736047 129.71348859 -234.3125 126.6875 C-224.29277345 122.08298548 -214.33115653 117.36687279 -204.39453125 112.5859375 C-200.94234246 110.92598288 -197.48287152 109.28397983 -194.01171875 107.6640625 C-184.58144406 103.26007148 -175.32144433 98.62178511 -166.13671875 93.7265625 C-161.40445075 91.20503644 -156.64489166 88.73843043 -151.88134766 86.27661133 C-139.15411478 79.69506948 -126.53824831 72.9342115 -114 66 C-113.01563965 65.45762695 -112.0312793 64.91525391 -111.01708984 64.35644531 C-96.09657754 56.12558495 -81.39864657 47.57416511 -66.83740234 38.72363281 C-64.21415976 37.13009533 -61.58640037 35.54433781 -58.95703125 33.9609375 C-51.44294489 29.42170055 -44.04166306 24.7634493 -36.7668457 19.84960938 C-29.35130502 14.85379337 -21.78116443 10.09459485 -14.18408203 5.38037109 C-12.70491896 4.44551887 -11.24244131 3.48382606 -9.79638672 2.49853516 C-9.09916504 2.03108887 -8.40194336 1.56364258 -7.68359375 1.08203125 C-7.0692749 0.65768799 -6.45495605 0.23334473 -5.82202148 -0.20385742 C-3.46107064 -1.23548823 -2.36693382 -0.92495225 0 0 Z " fill="#34495D" transform="translate(899,280)"/>
<path d="M0 0 C3.4009835 1.3789702 4.73029136 2.60258381 6.25 5.9375 C9.95037423 15.09336668 8.32539082 24.94406147 5 34 C1.01881493 42.82893724 -3.61299468 51.67831097 -10 59 C-10.66 59 -11.32 59 -12 59 C-12.28875 59.598125 -12.5775 60.19625 -12.875 60.8125 C-14 63 -14 63 -16 66 C-16.66 66 -17.32 66 -18 66 C-18.66 67.32 -19.32 68.64 -20 70 C-20.66 70 -21.32 70 -22 70 C-22.34224609 70.84498047 -22.34224609 70.84498047 -22.69140625 71.70703125 C-24.36228928 74.63481733 -26.42091797 76.4453229 -28.9375 78.6875 C-29.67166138 79.34214233 -29.67166138 79.34214233 -30.4206543 80.01000977 C-35.48806071 84.49480644 -40.71218712 88.77822149 -46 93 C-46.51900879 93.41862305 -47.03801758 93.83724609 -47.57275391 94.26855469 C-69.93747775 112.29664699 -94.17696033 128.73445776 -119.1484375 142.93505859 C-121.59821976 144.34407102 -124.01440549 145.80529612 -126.43041992 147.27124023 C-141.78935268 156.58798986 -157.45297321 165.31928619 -173.3125 173.75 C-174.30429764 174.27799194 -174.30429764 174.27799194 -175.31613159 174.81665039 C-184.53326031 179.71718235 -193.82375349 184.4531105 -203.17529297 189.09159851 C-206.18566164 190.59026287 -209.18575189 192.10915193 -212.1875 193.625 C-242.66758634 208.88928869 -273.55297144 223.00490852 -305.20292664 235.66809082 C-309.49363402 237.38712839 -313.76996658 239.1379078 -318.0390625 240.91015625 C-360.39569887 258.47669194 -409.58001676 277.64165443 -456 279 C-456.69512695 279.02046387 -457.39025391 279.04092773 -458.10644531 279.06201172 C-474.78152873 279.48324034 -495.68607066 279.71132673 -509 268 C-512.18955454 264.07684792 -514.5200742 260.11920856 -515 255 C-510.903048 255 -510.18407482 255.25532455 -506.9375 257.3125 C-479.8195612 272.85248766 -441.45951019 259.5634859 -413.67578125 252.03515625 C-371.7884852 240.39755392 -330.72690527 224.47145367 -291.19628906 206.45458984 C-288.21242609 205.09667237 -285.22333473 203.75120761 -282.23220825 202.40940857 C-265.47751245 194.89026022 -248.86097067 187.12481046 -232.3515625 179.08203125 C-227.21766612 176.58161957 -222.05721578 174.14812015 -216.875 171.75 C-209.564666 168.34537076 -202.44698904 164.61344016 -195.33203125 160.8203125 C-191.45242696 158.75620662 -187.55117633 156.73939547 -183.63671875 154.7421875 C-169.33660746 147.43443665 -155.39191901 139.70561566 -141.58154297 131.51318359 C-138.04844313 129.44224045 -134.46440212 127.47099737 -130.875 125.5 C-122.45477074 120.83890023 -114.39847596 115.6089323 -106.30859375 110.40234375 C-102.5433667 107.97931019 -98.75357799 105.60605519 -94.93310547 103.27148438 C-78.57990076 93.24869016 -62.85385408 82.13194365 -48 70 C-47.07703125 69.2575 -46.1540625 68.515 -45.203125 67.75 C-28.19492279 55.53306182 -28.19492279 55.53306182 -15 40 C-14.34 40 -13.68 40 -13 40 C-12.60941406 39.15308594 -12.60941406 39.15308594 -12.2109375 38.2890625 C-10.8856488 35.78383934 -9.31910139 33.64613155 -7.625 31.375 C-0.30851338 20.86614239 0.55672627 12.46448264 0 0 Z " fill="#F58C46" transform="translate(988,316)"/>
<path d="M0 0 C3 1 3 1 4.1328125 3.1171875 C8.37631265 14.91211311 9.57209543 25.85811665 4.43359375 37.5703125 C-2.40804537 51.4459332 -12.3445205 62.92432414 -23 74 C-23.51997559 74.54188965 -24.03995117 75.0837793 -24.57568359 75.64208984 C-31.6617304 82.98387367 -38.98794927 89.66586565 -47 96 C-48.2053545 96.99208909 -49.40833275 97.98706976 -50.609375 98.984375 C-60.4263832 107.11364186 -70.57136169 114.67517874 -81 122 C-81.66999023 122.47147461 -82.33998047 122.94294922 -83.03027344 123.42871094 C-87.65256605 126.67052791 -92.31232945 129.85354088 -97 133 C-98.09223877 133.73355713 -98.09223877 133.73355713 -99.20654297 134.48193359 C-113.79508019 144.22940365 -128.83642784 153.18607468 -144 162 C-144.96244629 162.56187012 -145.92489258 163.12374023 -146.91650391 163.70263672 C-193.91483294 191.0566456 -243.7814647 215.66930653 -295 234 C-296.38439418 234.49967643 -297.76866465 234.99969568 -299.15283203 235.5 C-427.79067901 281.9278618 -427.79067901 281.9278618 -471.65234375 261.62890625 C-476.36548549 258.35872305 -480.43529102 254.31219341 -484.41015625 250.19140625 C-485.12377319 249.45192749 -485.12377319 249.45192749 -485.85180664 248.69750977 C-487 247 -487 247 -488 242 C-484.37 242.99 -480.74 243.98 -477 245 C-477 245.66 -477 246.32 -477 247 C-475.16703596 247.31465883 -473.33360601 247.62660393 -471.5 247.9375 C-470.4790625 248.11152344 -469.458125 248.28554688 -468.40625 248.46484375 C-438.14324416 253.21946737 -406.35320606 248.88161837 -377.26513672 239.68603516 C-374.59913695 238.87859181 -371.91550281 238.16199261 -369.22265625 237.44921875 C-355.37925987 233.76375826 -342.0719308 229.2562242 -328.72949219 224.05371094 C-325.50068349 222.8072406 -322.25362699 221.61820456 -318.99926758 220.44042969 C-314.98962345 218.98680857 -310.99485314 217.49369532 -307 216 C-306.05431152 215.6484082 -305.10862305 215.29681641 -304.13427734 214.93457031 C-272.70901431 203.17078109 -242.3870089 188.76585 -212.25 174.0625 C-211.29169281 173.59630249 -210.33338562 173.13010498 -209.34603882 172.64978027 C-196.16855199 166.22644553 -183.23299343 159.43835475 -170.40985107 152.33468628 C-168.25908201 151.14349152 -166.10542818 149.95783624 -163.94970703 148.77563477 C-160.60759351 146.94223125 -157.27199054 145.09723782 -153.9375 143.25 C-152.85791016 142.65574219 -151.77832031 142.06148437 -150.66601562 141.44921875 C-142.9686744 137.1836664 -135.470827 132.64875328 -128 128 C-126.30462606 126.96541214 -124.60810336 125.93270314 -122.91015625 124.90234375 C-109.97996567 117.01356033 -97.43615177 108.64334928 -85 100 C-84.19449707 99.4436084 -83.38899414 98.8872168 -82.55908203 98.31396484 C-73.73243882 92.21371216 -65.16635688 85.97469965 -57 79 C-55.89216978 78.06611827 -54.78408237 77.13254158 -53.67578125 76.19921875 C-47.69900614 71.14315872 -41.81971264 65.99258874 -36.0625 60.6875 C-35.30187256 59.98693481 -35.30187256 59.98693481 -34.52587891 59.2722168 C-33.00594185 57.85956649 -31.50004297 56.4337532 -30 55 C-29.4328125 54.46052734 -28.865625 53.92105469 -28.28125 53.36523438 C-24.04169496 49.24215062 -20.38304362 44.88100953 -16.875 40.125 C-16.35292969 39.41956055 -15.83085938 38.71412109 -15.29296875 37.98730469 C-6.68821197 26.22349677 -2.16427407 14.46646351 0 0 Z " fill="#2E4357" transform="translate(1025,417)"/>
<path d="M0 0 C8.77172601 0.63794371 16.15635304 3.37006961 22.67578125 9.43359375 C24.838351 11.99167773 25.20348807 13.67636157 25 17 C16.49090457 33.9592364 -4.31897321 45.3890481 -20 55 C-21.59180232 55.99634778 -23.18287474 56.99386209 -24.7734375 57.9921875 C-34.78143654 64.25614065 -44.86400188 70.29795396 -55.20166016 76 C-58.0281247 77.57170768 -60.824469 79.19515192 -63.625 80.8125 C-106.03831083 105.10585476 -150.135105 127.19250413 -194.60595703 147.44628906 C-200.37431964 150.08690621 -206.1193368 152.77746761 -211.86602783 155.46484375 C-214.89575019 156.88151992 -217.92645878 158.29608082 -220.95703125 159.7109375 C-224.58315965 161.40390936 -228.20894873 163.09759179 -231.83349609 164.79394531 C-243.87972316 170.42919677 -255.98154755 175.9058046 -268.1875 181.1875 C-269.16768097 181.61177277 -269.16768097 181.61177277 -270.16766357 182.0446167 C-296.93902057 193.62424909 -323.90881352 204.68332177 -351.3125 214.6875 C-353.06481934 215.33912109 -353.06481934 215.33912109 -354.85253906 216.00390625 C-360.42918432 218.0097287 -365.05510826 219.59191563 -371 219 C-370.59460705 217.1849452 -370.17495391 215.37307492 -369.75 213.5625 C-369.51796875 212.55316406 -369.2859375 211.54382813 -369.046875 210.50390625 C-368.70140625 209.34761719 -368.3559375 208.19132813 -368 207 C-367.81727539 206.26426758 -367.63455078 205.52853516 -367.44628906 204.77050781 C-366.17827748 200.8522378 -365.01032493 198.61965697 -361.43847656 196.42895508 C-358.08322959 194.99704944 -354.70759878 193.78813623 -351.25 192.625 C-348.69769211 191.70741766 -346.15415667 190.76634244 -343.609375 189.828125 C-342.96718018 189.59503632 -342.32498535 189.36194763 -341.66333008 189.12179565 C-335.45706735 186.8533003 -329.47890795 184.1797014 -323.5 181.375 C-322.51966797 180.91770508 -321.53933594 180.46041016 -320.52929688 179.98925781 C-318.60660851 179.09093151 -316.68471138 178.19090946 -314.76367188 177.2890625 C-310.44502748 175.27471247 -306.0986885 173.32342728 -301.75 171.375 C-300.51515869 170.81969604 -300.51515869 170.81969604 -299.25537109 170.25317383 C-295.39107767 168.51611617 -291.52339117 166.78736539 -287.6484375 165.07421875 C-262.09998649 153.73805817 -236.95423362 141.47634323 -211.81208801 129.27157593 C-205.13644805 126.03108489 -198.4488225 122.81724704 -191.75 119.625 C-149.56188433 99.90663363 -149.56188433 99.90663363 -108.46337891 78.08862305 C-104.26980486 75.684344 -100.02293481 73.44977272 -95.6875 71.3125 C-76.67643766 61.92829559 -57.99324577 52.01731067 -39.60009766 41.47558594 C-36.37509404 39.64535853 -33.12160779 37.87079182 -29.86499023 36.09765625 C-17.32879439 29.25501115 -5.3438578 21.68555238 6 13 C5.62278992 7.5933222 3.91500215 5.61384813 0 2 C0 1.34 0 0.68 0 0 Z " fill="#34485C" transform="translate(826,182)"/>
<path d="M0 0 C0.66 0.33 1.32 0.66 2 1 C-6.94016482 34.32956182 -26.74739352 60.15761682 -54 81 C-54.56203125 81.43844238 -55.1240625 81.87688477 -55.703125 82.32861328 C-72.83496799 95.68541074 -91.27948156 107.02703023 -110 118 C-110.82016602 118.48291504 -111.64033203 118.96583008 -112.48535156 119.46337891 C-126.42305306 127.64515389 -140.67548692 135.16056518 -155.07128906 142.50195312 C-157.43757234 143.71231609 -159.79555342 144.93579765 -162.1484375 146.171875 C-175.75397195 153.19989942 -189.91903196 159.09749121 -203.98455811 165.13293457 C-205.89544569 165.95501958 -207.80386656 166.78253081 -209.71142578 167.61230469 C-309.59478037 210.9249213 -309.59478037 210.9249213 -350.04296875 195.8671875 C-350.68878906 195.58101562 -351.33460938 195.29484375 -352 195 C-352 194.34 -352 193.68 -352 193 C-348.42505334 191.90544843 -345.0370491 191.86082612 -341.3125 191.75 C-318.68386836 190.66938162 -296.16916139 183.75423517 -275.00585938 176.08642578 C-271.72137568 174.89929514 -268.43093223 173.72948114 -265.140625 172.55859375 C-248.04911829 166.43029184 -231.26760034 159.71020646 -214.58691406 152.54150391 C-211.20388777 151.08762234 -207.81707085 149.64291141 -204.4296875 148.19921875 C-194.10587197 143.77766757 -183.98217207 139.15132304 -174 134 C-172.15654734 133.07143857 -170.3100207 132.14924864 -168.46264648 131.22851562 C-167.1422303 130.57019642 -165.82274562 129.91000587 -164.50415039 129.24804688 C-160.66072148 127.31929483 -156.80622039 125.41661543 -152.9375 123.5390625 C-116.76260967 105.88305494 -81.88044124 83.88507575 -51 58 C-50.43990234 57.53158691 -49.87980469 57.06317383 -49.30273438 56.58056641 C-39.07580826 48.00503738 -29.61978651 39.28006396 -21.2578125 28.8203125 C-19.75451996 26.94249725 -18.22830597 25.08280137 -16.6796875 23.2421875 C-12.16048623 17.86510395 -8.1656173 12.40930952 -4.5078125 6.41015625 C-3.10882814 4.17395586 -1.61482906 2.08380637 0 0 Z " fill="#223345" transform="translate(1020,543)"/>
<path d="M0 0 C-1 3 -1 3 -2.69313049 3.99020386 C-3.79551308 4.42600266 -3.79551308 4.42600266 -4.92016602 4.87060547 C-5.75112289 5.20939728 -6.58207977 5.54818909 -7.43821716 5.89724731 C-8.34676956 6.25857758 -9.25532196 6.61990784 -10.19140625 6.9921875 C-20.78233757 11.36700905 -30.93907976 16.37059119 -41.10247803 21.65197754 C-45.01394584 23.68430039 -48.93387687 25.70005951 -52.85327148 27.71704102 C-54.81705377 28.72781369 -56.7804378 29.7393605 -58.7434082 30.75170898 C-66.92738545 34.97125554 -75.13711384 39.13676573 -83.375 43.25 C-83.97430328 43.54943512 -84.57360657 43.84887024 -85.19107056 44.15737915 C-94.06138491 48.58428818 -102.98403571 52.89444936 -111.93798828 57.14916992 C-125.49719665 63.59794391 -138.88566322 70.35636478 -152.14648438 77.39746094 C-156.34983076 79.62471129 -160.5717284 81.79327175 -164.84570312 83.8815918 C-174.16526531 88.43742392 -183.14678967 93.53979766 -192.15234375 98.68359375 C-196.8135708 101.34152109 -201.51117411 103.92305923 -206.23022461 106.4765625 C-213.83248379 110.59358439 -221.03833844 114.85329676 -228 120 C-229.57814739 121.04950689 -231.16146893 122.09127715 -232.75 123.125 C-235.47546383 124.91147894 -237.94659259 126.76628845 -240.375 128.9375 C-241.24125 129.618125 -242.1075 130.29875 -243 131 C-243.99 130.67 -244.98 130.34 -246 130 C-234.47501126 112.02101757 -220.25187892 98.22250065 -202.07275391 87.25097656 C-200.1307521 86.07891328 -198.19552544 84.89645628 -196.26171875 83.7109375 C-177.9506453 72.53874647 -158.93223161 62.69319397 -139.83978271 52.94134521 C-138.07087971 52.03626639 -136.30419045 51.12686495 -134.53759766 50.21728516 C-116.65741581 41.02139206 -98.4681639 32.72402747 -80.0559845 24.66130066 C-75.21849377 22.54165072 -70.39988658 20.38415873 -65.59423828 18.19311523 C-23.83102803 -0.83563345 -23.83102803 -0.83563345 0 0 Z " fill="#2D4054" transform="translate(751,165)"/>
<path d="M0 0 C1.35568336 0.00333092 1.35568336 0.00333092 2.73875427 0.00672913 C3.75973709 0.00680466 4.78071991 0.00688019 5.8326416 0.00695801 C6.94304306 0.01211929 8.05344452 0.01728058 9.19749451 0.02259827 C10.89336952 0.02472069 10.89336952 0.02472069 12.62350464 0.02688599 C16.25105891 0.03250433 19.8785525 0.04505994 23.50608826 0.05775452 C25.95856133 0.06276715 28.41103536 0.06733047 30.86351013 0.07142639 C36.89022371 0.08247971 42.91690165 0.09923568 48.94358826 0.12025452 C49.0161979 7.66735814 48.43797523 12.33024695 43.14280701 18.07337952 C36.34633998 24.35516264 30.21518862 26.72699758 20.94749451 26.47181702 C13.77672104 25.63258475 8.6193268 22.59754823 3.94358826 17.12025452 C3.24233826 16.41900452 2.54108826 15.71775452 1.81858826 14.99525452 C-0.97055095 10.7185744 -1.91516394 6.05701583 -3.05641174 1.12025452 C-2.05641174 0.12025452 -2.05641174 0.12025452 0 0 Z " fill="#F37113" transform="translate(915.0564117431641,248.87974548339844)"/>
<path d="M0 0 C0.66 0.33 1.32 0.66 2 1 C1.3709375 1.5259375 0.741875 2.051875 0.09375 2.59375 C-2.49064228 5.56387247 -2.89714165 7.63461413 -3.5 11.5 C-3.6959375 12.6240625 -3.891875 13.748125 -4.09375 14.90625 C-4.29915822 18.08035629 -4.29915822 18.08035629 -2.2109375 20.33203125 C6.18918039 26.66922266 19.98995093 25.17258705 30 25 C24.07969808 29.92423216 16.22651489 31.71070344 8.75 32.9375 C5.18735837 33.55487351 2.98542132 34.50840181 0.0625 36.625 C-4.72387222 39.89019724 -9.38614778 39.90357085 -15 39 C-18.98603431 37.63997377 -21.48333211 35.73333507 -23.9375 32.25 C-24.288125 31.5075 -24.63875 30.765 -25 30 C-20 25 -20 25 -17.3125 22.875 C-14.75965039 19.70118697 -14.64396259 18.48489366 -14.1875 14.5625 C-13.7332905 11.31752255 -13.46935953 9.53016292 -11.28125 7.05859375 C-9.24907953 5.54583999 -7.20330503 4.24755275 -5 3 C-4.05125 2.360625 -3.1025 1.72125 -2.125 1.0625 C-1.42375 0.711875 -0.7225 0.36125 0 0 Z " fill="#000000" transform="translate(705,439)"/>
<path d="M0 0 C-1.83111615 5.49334845 -7.56347437 8.49902818 -12 12 C-12.70382812 12.59167969 -13.40765625 13.18335938 -14.1328125 13.79296875 C-34.49798346 30.60421772 -67.56345408 48.54078643 -94 51 C-91.70698815 48.43798333 -89.48631405 47.09697565 -86.37890625 45.65234375 C-84.99106934 44.99975586 -84.99106934 44.99975586 -83.57519531 44.33398438 C-82.58100586 43.87314453 -81.58681641 43.41230469 -80.5625 42.9375 C-78.46426014 41.94785101 -76.36661391 40.95694253 -74.26953125 39.96484375 C-73.21459473 39.46710449 -72.1596582 38.96936523 -71.07275391 38.45654297 C-57.40025695 31.97552304 -44.1707761 24.96464995 -31.1484375 17.26220703 C-27.99443672 15.40923157 -24.80983122 13.61176362 -21.625 11.8125 C-15.8288534 8.51892493 -10.17552609 5.03813849 -4.546875 1.46875 C-2 0 -2 0 0 0 Z " fill="#1B2837" transform="translate(925,685)"/>
<path d="M0 0 C-1 3 -1 3 -2.67726135 3.98226929 C-3.40581833 4.26961945 -4.13437531 4.5569696 -4.88500977 4.85302734 C-6.12383156 5.35740829 -6.12383156 5.35740829 -7.38768005 5.87197876 C-8.2922847 6.23133514 -9.19688934 6.59069153 -10.12890625 6.9609375 C-22.07084146 11.89016863 -33.47868214 17.67487625 -44.9375 23.625 C-46.89092529 24.63349218 -48.84470069 25.64130652 -50.79882812 26.6484375 C-51.7526236 27.1401947 -52.70641907 27.6319519 -53.68911743 28.13861084 C-55.55719674 29.10150436 -57.42533879 30.06427618 -59.29354858 31.0269165 C-60.17749298 31.48241882 -61.06143738 31.93792114 -61.97216797 32.40722656 C-62.82284851 32.84538696 -63.67352905 33.28354736 -64.54998779 33.73498535 C-66.84358921 34.91924043 -69.13307029 36.11115692 -71.42236328 37.30371094 C-72.6992944 37.96077229 -73.97645585 38.6173863 -75.25390625 39.2734375 C-76.33099854 39.83208496 -77.40809082 40.39073242 -78.51782227 40.96630859 C-79.33694092 41.30742676 -80.15605957 41.64854492 -81 42 C-81.66 41.67 -82.32 41.34 -83 41 C-75.32599429 36.49152164 -67.59310242 32.21712865 -59.60644531 28.28759766 C-53.43772587 25.24426505 -47.34262676 22.0675423 -41.25 18.875 C-38.33725559 17.35302332 -35.42408781 15.83186063 -32.51074219 14.31103516 C-31.01087424 13.52784857 -29.51138816 12.74392898 -28.01269531 11.95849609 C-20.53924725 8.05358714 -12.92190133 4.88766081 -5 2 C-10.5492072 1.86979514 -15.62110617 2.2516657 -21.0625 3.3125 C-21.73087891 3.43044922 -22.39925781 3.54839844 -23.08789062 3.66992188 C-26.5431485 4.32470835 -29.5553996 5.17421719 -32.74609375 6.66796875 C-36 8 -36 8 -38.4375 7.6875 C-38.953125 7.460625 -39.46875 7.23375 -40 7 C-26.1877829 1.78558951 -14.69640837 -0.32820763 0 0 Z " fill="#070C13" transform="translate(751,165)"/>
<path d="M0 0 C0.66 0.33 1.32 0.66 2 1 C-2.44791435 5.10630337 -6.42130222 7.25628508 -12.125 9.1875 C-18.18245046 11.30718011 -18.18245046 11.30718011 -24 14 C-30.89020085 17.08042603 -37.77035803 20.09938917 -44.984375 22.34375 C-47.08092435 23.02634746 -49.08708384 23.84744296 -51.125 24.6875 C-54.90488303 26.1448043 -57.97428022 26.25160749 -62 26 C-59.16548521 23.16548521 -55.70208381 22.21511233 -52.01171875 20.83984375 C-50.80110779 20.38050194 -50.80110779 20.38050194 -49.56604004 19.91188049 C-47.83685593 19.25585558 -46.10683466 18.60203389 -44.37606812 17.95019531 C-31.34260279 13.04091696 -18.3456582 8.12538801 -5.66479492 2.35131836 C-3.79931474 1.51476107 -1.90270543 0.74803505 0 0 Z " fill="#D19A6F" transform="translate(689,526)"/>
<path d="M0 0 C2.95458026 1.07439282 5.44108723 2.27347408 8.125 3.9375 C23.35584792 12.67811508 41.05712688 10.07461399 57.50366211 7.38647461 C58.67292236 7.19706299 59.84218262 7.00765137 61.046875 6.8125 C62.09713867 6.63332031 63.14740234 6.45414063 64.22949219 6.26953125 C66.84565917 6.01501518 68.53439862 6.16580733 71 7 C68.861011 9.138989 64.63512851 9.02075167 61.6875 9.5 C60.45942627 9.7007312 60.45942627 9.7007312 59.20654297 9.90551758 C52.81480392 10.92264216 46.46847902 11.68848685 40 12 C39.11054687 12.06445312 38.22109375 12.12890625 37.3046875 12.1953125 C27.9234881 12.58728462 18.97375127 10.39791919 9.87255859 8.3671875 C7.99093266 7.93585863 7.99093266 7.93585863 6 8 C5.67 8.66 5.34 9.32 5 10 C5.61875 10.309375 6.2375 10.61875 6.875 10.9375 C8.25 11.625 9.625 12.3125 11 13 C11 14.32 11 15.64 11 17 C6.87916485 15.68946229 5.07158933 14.32262014 2.75 10.6875 C2.24984375 9.92824219 1.7496875 9.16898438 1.234375 8.38671875 C-0.06072859 5.88257858 -0.67297038 3.79417957 -1 1 C-0.67 0.67 -0.34 0.34 0 0 Z " fill="#8B4114" transform="translate(474,570)"/>
<path d="M0 0 C3.4009835 1.3789702 4.73029136 2.60258381 6.25 5.9375 C9.96297747 15.12455097 8.1969656 24.86371757 5 34 C4.34 34.66 3.68 35.32 3 36 C2.8068969 30.68966483 3.28880902 26.20734781 4.5546875 21.0546875 C5.07231897 18.66631775 5.15717405 16.43619782 5 14 C4.3503125 15.794375 4.3503125 15.794375 3.6875 17.625 C0.97515799 24.7607409 0.97515799 24.7607409 -1 28 C-3.1875 28.875 -3.1875 28.875 -5 29 C-3.98617067 25.80253827 -2.91647879 22.82961673 -1.4375 19.8125 C0.34365348 15.69715823 0.34538421 11.98730611 0.1875 7.5625 C0.17396484 6.83095703 0.16042969 6.09941406 0.14648438 5.34570312 C0.11153874 3.56347578 0.05774805 1.78163427 0 0 Z " fill="#D66612" transform="translate(988,316)"/>
<path d="M0 0 C0.66 0.33 1.32 0.66 2 1 C1.3709375 1.5259375 0.741875 2.051875 0.09375 2.59375 C-2.49064228 5.56387247 -2.89714165 7.63461413 -3.5 11.5 C-3.6959375 12.6240625 -3.891875 13.748125 -4.09375 14.90625 C-4.29915822 18.08035629 -4.29915822 18.08035629 -2.2109375 20.33203125 C6.18918039 26.66922266 19.98995093 25.17258705 30 25 C26.94067461 28.02737421 24.39197831 28.36010979 20.16113281 28.36645508 C19.42733398 28.3486499 18.69353516 28.33084473 17.9375 28.3125 C17.18178711 28.30049561 16.42607422 28.28849121 15.64746094 28.27612305 C0.82891224 27.90518579 0.82891224 27.90518579 -5.0625 23.9375 C-7.61136482 20.07309205 -8.95192613 16.66316531 -9 12 C-7.463851 6.99255327 -3.77382221 3.45933703 0 0 Z " fill="#000115" transform="translate(705,439)"/>
<path d="M0 0 C0.99 0.33 1.98 0.66 3 1 C-11.39701371 12.81938243 -26.48175809 23.36432887 -41.9375 33.75 C-42.9989624 34.46639648 -44.0604248 35.18279297 -45.15405273 35.92089844 C-46.14348877 36.5812207 -47.1329248 37.24154297 -48.15234375 37.921875 C-49.03913818 38.51581055 -49.92593262 39.10974609 -50.83959961 39.72167969 C-53 41 -53 41 -55 41 C-55 40.01 -55 39.02 -55 38 C-53.68 38 -52.36 38 -51 38 C-50.773125 37.38125 -50.54625 36.7625 -50.3125 36.125 C-48.62070165 33.38589791 -47.00755839 32.94975528 -44 32 C-44 31.34 -44 30.68 -44 30 C-40.535 29.505 -40.535 29.505 -37 29 C-37 28.01 -37 27.02 -37 26 C-36.01 26 -35.02 26 -34 26 C-33.67 25.01 -33.34 24.02 -33 23 C-31.4765625 21.83203125 -31.4765625 21.83203125 -29.625 20.8125 C-29.01914062 20.46832031 -28.41328125 20.12414062 -27.7890625 19.76953125 C-26 19 -26 19 -23 19 C-23 18.34 -23 17.68 -23 17 C-22.01 17 -21.02 17 -20 17 C-19.505 15.515 -19.505 15.515 -19 14 C-18.34 14.33 -17.68 14.66 -17 15 C-16.7525 14.401875 -16.505 13.80375 -16.25 13.1875 C-14.81927475 10.68373081 -13.4308418 9.51927612 -11 8 C-10.34 8 -9.68 8 -9 8 C-9 7.34 -9 6.68 -9 6 C-7.35 5.67 -5.7 5.34 -4 5 C-3.67 4.01 -3.34 3.02 -3 2 C-2.01 2 -1.02 2 0 2 C0 1.34 0 0.68 0 0 Z " fill="#C05B14" transform="translate(940,407)"/>
<path d="M0 0 C0.73283203 0.17853516 1.46566406 0.35707031 2.22070312 0.54101562 C7.67953356 1.92953356 7.67953356 1.92953356 9.9375 4.1875 C12.46127655 4.46558217 12.46127655 4.46558217 15.3828125 4.3828125 C16.45917969 4.37636719 17.53554688 4.36992188 18.64453125 4.36328125 C19.77246094 4.34652344 20.90039062 4.32976563 22.0625 4.3125 C23.19816406 4.30347656 24.33382812 4.29445313 25.50390625 4.28515625 C28.31531299 4.26153098 31.12630298 4.22859013 33.9375 4.1875 C33.9375 3.8575 33.9375 3.5275 33.9375 3.1875 C42.8475 3.1875 51.7575 3.1875 60.9375 3.1875 C60.9375 3.5175 60.9375 3.8475 60.9375 4.1875 C38.16193321 7.97118287 12.73982503 10.55225706 -9.0625 1.1875 C-9.7225 0.5275 -10.3825 -0.1325 -11.0625 -0.8125 C-7.02881597 -2.15706134 -3.97831594 -1.03766862 0 0 Z " fill="#904C19" transform="translate(496.0625,587.8125)"/>
<path d="M0 0 C0.99 0.495 0.99 0.495 2 1 C-9.92055219 8.21017802 -22.40256115 14.08200045 -35 20 C-37.98497214 21.40883782 -40.96869466 22.82023673 -43.95092773 24.23486328 C-45.77861705 25.10176032 -47.60750634 25.9661332 -49.43774414 26.82763672 C-50.25750732 27.21580566 -51.07727051 27.60397461 -51.921875 28.00390625 C-52.63956055 28.34236572 -53.35724609 28.6808252 -54.09667969 29.02954102 C-56.23907985 30.0754488 -56.23907985 30.0754488 -59 32 C-61.6875 32.125 -61.6875 32.125 -64 32 C-63.401875 31.566875 -62.80375 31.13375 -62.1875 30.6875 C-60.02359025 29.1558576 -60.02359025 29.1558576 -58.75 27.4375 C-57 26 -57 26 -53.60498047 25.25268555 C-47.86042499 23.88119847 -42.8159382 21.1713303 -37.5703125 18.51953125 C-36.49876923 17.98728439 -35.42722595 17.45503754 -34.32321167 16.90666199 C-30.92003325 15.21605848 -27.52196325 13.5155539 -24.125 11.8125 C-19.63201581 9.56001642 -15.13413118 7.31780401 -10.6328125 5.08203125 C-9.59641632 4.55817337 -8.56002014 4.03431549 -7.49221802 3.49458313 C-6.53717377 3.02046494 -5.58212952 2.54634674 -4.59814453 2.05786133 C-3.75623566 1.6353157 -2.91432678 1.21277008 -2.04690552 0.77742004 C-1.3714267 0.52087143 -0.69594788 0.26432281 0 0 Z " fill="#080E15" transform="translate(748,392)"/>
<path d="M0 0 C-1.35156429 0.77538723 -2.70642085 1.54503617 -4.0625 2.3125 C-4.81660156 2.74175781 -5.57070313 3.17101562 -6.34765625 3.61328125 C-9 5 -9 5 -12.22607422 6.36987305 C-15.89903347 7.9316431 -19.47224502 9.67200222 -23.03515625 11.46875 C-23.67690292 11.79033081 -24.3186496 12.11191162 -24.97984314 12.4432373 C-27.00835372 13.46026161 -29.03545043 14.48006739 -31.0625 15.5 C-32.42503632 16.18378087 -33.7876658 16.86737614 -35.15039062 17.55078125 C-37.6595139 18.80939968 -40.16808664 20.06910114 -42.67602539 21.33007812 C-44.32139282 22.15668945 -44.32139282 22.15668945 -46 23 C-47.63666626 23.84981445 -47.63666626 23.84981445 -49.30639648 24.71679688 C-52 26 -52 26 -54 26 C-54 26.66 -54 27.32 -54 28 C-54.99 28.33 -55.98 28.66 -57 29 C-57.99 28.34 -58.98 27.68 -60 27 C-53.67152828 23.81019655 -47.33979408 20.62693972 -41.00585938 17.44799805 C-38.85603216 16.36808709 -36.70692819 15.286735 -34.55859375 14.20385742 C-31.45246065 12.63852222 -28.34367561 11.07856336 -25.234375 9.51953125 C-23.81798737 8.8035955 -23.81798737 8.8035955 -22.37298584 8.07319641 C-3.1148775 -1.55743875 -3.1148775 -1.55743875 0 0 Z " fill="#141B26" transform="translate(655,199)"/>
<path d="M0 0 C-6.66479892 3.60434924 -13.47243269 5.97288933 -20.6875 8.25 C-22.3590918 8.79527344 -22.3590918 8.79527344 -24.06445312 9.3515625 C-25.14017578 9.69445312 -26.21589844 10.03734375 -27.32421875 10.390625 C-28.29447998 10.70032227 -29.26474121 11.01001953 -30.2644043 11.32910156 C-32.95904248 11.98995526 -35.23876624 12.1294672 -38 12 C-37.34 11.34 -36.68 10.68 -36 10 C-35.01 10 -34.02 10 -33 10 C-33 9.34 -33 8.68 -33 8 C-29.69009373 6.86727048 -26.37664098 5.74527301 -23.0625 4.625 C-22.13630859 4.30789063 -21.21011719 3.99078125 -20.25585938 3.6640625 C-4.71363711 -1.57121237 -4.71363711 -1.57121237 0 0 Z " fill="#CA8352" transform="translate(625,555)"/>
<path d="M0 0 C0.99 0 1.98 0 3 0 C1.67791593 4.39167531 -0.04333773 8.11700162 -2.375 12.0625 C-2.96023438 13.06410156 -3.54546875 14.06570313 -4.1484375 15.09765625 C-5.94650146 17.91614048 -7.77453941 20.50437032 -10 23 C-10.66 23 -11.32 23 -12 23 C-12.28875 23.598125 -12.5775 24.19625 -12.875 24.8125 C-14 27 -14 27 -16 30 C-16.66 30 -17.32 30 -18 30 C-18.33 30.99 -18.66 31.98 -19 33 C-19.625 31.125 -19.625 31.125 -20 29 C-19.34 28.34 -18.68 27.68 -18 27 C-17.67 26.34 -17.34 25.68 -17 25 C-16.34 25 -15.68 25 -15 25 C-15 24.34 -15 23.68 -15 23 C-14.34 23 -13.68 23 -13 23 C-12.60941406 21.89398438 -12.60941406 21.89398438 -12.2109375 20.765625 C-10.97853704 17.95098137 -9.60356771 16.08280909 -7.625 13.75 C-4.16982887 9.45808596 -1.95289494 5.13089788 0 0 Z " fill="#B6530E" transform="translate(988,352)"/>
<path d="M0 0 C0.66 0.33 1.32 0.66 2 1 C-2.44791435 5.10630337 -6.42130222 7.25628508 -12.125 9.1875 C-18.19266001 11.28397079 -18.19266001 11.28397079 -24 14 C-28.60204082 16.13265306 -28.60204082 16.13265306 -32 15 C-29.55227232 12.16381743 -27.07922834 10.99478719 -23.6328125 9.58984375 C-22.58222656 9.15736328 -21.53164063 8.72488281 -20.44921875 8.27929688 C-19.35222656 7.83650391 -18.25523437 7.39371094 -17.125 6.9375 C-16.03574219 6.49083984 -14.94648437 6.04417969 -13.82421875 5.58398438 C-10.88607122 4.38103413 -7.94473818 3.18671312 -5 2 C-4.10007324 1.60240479 -3.20014648 1.20480957 -2.27294922 0.79516602 C-1.52287598 0.53276123 -0.77280273 0.27035645 0 0 Z " fill="#CA946B" transform="translate(689,526)"/>
<path d="M0 0 C0.66 0.33 1.32 0.66 2 1 C0.36642685 7.1506504 -1.24115979 12.80395619 -5 18 C-7.75 18.9375 -7.75 18.9375 -10 19 C-9.54367549 13.54069953 -7.59158996 10.39485532 -4.4375 6.125 C-4.01275391 5.53203125 -3.58800781 4.9390625 -3.15039062 4.328125 C-2.10989834 2.87845035 -1.0562628 1.43822449 0 0 Z " fill="#243547" transform="translate(1020,543)"/>
<path d="M0 0 C0.99 0.33 1.98 0.66 3 1 C2.34 1 1.68 1 1 1 C0.90340088 1.61657471 0.80680176 2.23314941 0.70727539 2.8684082 C-0.33054243 5.99619123 -2.56600972 6.72779042 -5.38476562 8.14648438 C-6.10341797 8.49001953 -6.82207031 8.83355469 -7.5625 9.1875 C-8.59987305 9.72020508 -8.59987305 9.72020508 -9.65820312 10.26367188 C-14.48783852 12.63572952 -18.63628017 13.59576015 -24 14 C-22.32873916 10.65747832 -18.63026486 9.6859024 -15.375 8.125 C-13.96515469 7.44214675 -12.55629159 6.75726171 -11.1484375 6.0703125 C-10.10961426 5.56612793 -10.10961426 5.56612793 -9.04980469 5.05175781 C-7.02494462 4.01279912 -5.10474519 2.86696471 -3.1640625 1.6796875 C-2.11992188 1.12539062 -1.07578125 0.57109375 0 0 Z " fill="#314254" transform="translate(746,245)"/>
<path d="M0 0 C-6.35832829 5.72249546 -13.50409935 9.15040994 -22 10 C-22.721875 10.37125 -23.44375 10.7425 -24.1875 11.125 C-26.52586807 12.25386735 -27.57390589 11.71326162 -30 11 C-26.1336993 9.14790136 -22.2556903 7.3217312 -18.375 5.5 C-17.28058594 4.97535156 -16.18617188 4.45070313 -15.05859375 3.91015625 C-13.99511719 3.41386719 -12.93164062 2.91757812 -11.8359375 2.40625 C-10.86188965 1.94541016 -9.8878418 1.48457031 -8.88427734 1.00976562 C-5.74645621 -0.08876394 -3.29994906 -0.18832394 0 0 Z M-19 9 C-17 10 -17 10 -17 10 Z " fill="#B17855" transform="translate(746,503)"/>
<path d="M0 0 C0 3.51716303 -0.82445585 4.37121748 -3 7 C-2.34 7.33 -1.68 7.66 -1 8 C0.98 6.68 2.96 5.36 5 4 C5.66 4.33 6.32 4.66 7 5 C4.42327732 7.12200691 1.85084921 9.09837606 -0.9375 10.9375 C-3.24153861 12.48919947 -5.14070084 13.97848689 -7.1875 15.8125 C-8.115625 16.534375 -9.04375 17.25625 -10 18 C-10.99 17.67 -11.98 17.34 -13 17 C-9.16891559 11.02350832 -5.02986035 5.02986035 0 0 Z " fill="#19232F" transform="translate(518,278)"/>
<path d="M0 0 C0.99 0.33 1.98 0.66 3 1 C2.59160889 1.38744385 2.18321777 1.7748877 1.76245117 2.17407227 C-0.10664328 3.9593056 -1.95947774 5.76059559 -3.8125 7.5625 C-4.45509766 8.17158203 -5.09769531 8.78066406 -5.75976562 9.40820312 C-8.80408823 12.38943096 -11.19335229 14.89907046 -12.76171875 18.90234375 C-13.37466797 20.43568359 -13.37466797 20.43568359 -14 22 C-14.99 22.33 -15.98 22.66 -17 23 C-17.66 22.01 -18.32 21.02 -19 20 C-16.77234548 17.60275688 -14.54260279 15.20746553 -12.3125 12.8125 C-11.68666016 12.13896484 -11.06082031 11.46542969 -10.41601562 10.77148438 C-7.00692833 7.11251634 -3.56346011 3.50895212 0 0 Z " fill="#3A4F64" transform="translate(533,264)"/>
<path d="M0 0 C7.26 0 14.52 0 22 0 C18 2 18 2 15 3 C15.99 3.66 16.98 4.32 18 5 C11.19796625 5.37634203 6.24309927 4.77471079 0 2 C0 1.34 0 0.68 0 0 Z " fill="#2A3D50" transform="translate(668,736)"/>
<path d="M0 0 C12.54 0 25.08 0 38 0 C36 3 36 3 34.19091797 3.37231445 C33.46533691 3.3693335 32.73975586 3.36635254 31.9921875 3.36328125 C31.17717773 3.36392578 30.36216797 3.36457031 29.52246094 3.36523438 C28.64879883 3.34783203 27.77513672 3.33042969 26.875 3.3125 C25.98586914 3.30412109 25.09673828 3.29574219 24.18066406 3.28710938 C16.02276426 3.1414846 8.05723429 2.2603495 0 1 C0 0.67 0 0.34 0 0 Z " fill="#213543" transform="translate(566,681)"/>
<path d="M0 0 C7.40263571 0.53837351 13.88410106 2.26408874 19.5625 7.25 C20.036875 7.8275 20.51125 8.405 21 9 C17.34061828 7.56835889 13.76011932 6.01065704 10.1875 4.375 C9.21167969 3.92898437 8.23585938 3.48296875 7.23046875 3.0234375 C6.49441406 2.68570313 5.75835938 2.34796875 5 2 C5 2.66 5 3.32 5 4 C6.32 4.66 7.64 5.32 9 6 C9 8.64 9 11.28 9 14 C7.68 14.33 6.36 14.66 5 15 C5.226875 14.29875 5.45375 13.5975 5.6875 12.875 C6.10255498 9.05649415 5.0037302 7.22028067 3 4 C2.01 3.34 1.02 2.68 0 2 C0 1.34 0 0.68 0 0 Z " fill="#090E13" transform="translate(826,182)"/>
<path d="M0 0 C0.66 0.33 1.32 0.66 2 1 C-0.20070241 4.42650083 -2.00633895 5.73350026 -5.8125 7.125 C-6.70066406 7.45628906 -7.58882812 7.78757812 -8.50390625 8.12890625 C-10.41195521 8.79478249 -12.32914277 9.43452744 -14.25 10.0625 C-17.13417706 10.96091333 -17.13417706 10.96091333 -20.125 12.6875 C-23.27119974 14.12380858 -23.87785944 13.99828099 -27 13 C-25.88882813 12.48050781 -24.77765625 11.96101563 -23.6328125 11.42578125 C-22.13014257 10.72149447 -20.62754303 10.01705748 -19.125 9.3125 C-17.9637561 8.76928101 -17.9637561 8.76928101 -16.77905273 8.21508789 C-11.71391581 5.83619277 -6.716546 3.36239948 -1.78515625 0.71484375 C-1.19605469 0.47894531 -0.60695313 0.24304688 0 0 Z " fill="#AB6C49" transform="translate(777,485)"/>
<path d="M0 0 C0.66 0.33 1.32 0.66 2 1 C0.7934375 1.4021875 0.7934375 1.4021875 -0.4375 1.8125 C-1.283125 2.204375 -2.12875 2.59625 -3 3 C-3.33 3.99 -3.66 4.98 -4 6 C-6.28515625 7.38671875 -6.28515625 7.38671875 -9.0625 8.6875 C-10.44115234 9.34298828 -10.44115234 9.34298828 -11.84765625 10.01171875 C-12.55792969 10.33785156 -13.26820313 10.66398438 -14 11 C-14.33 10.34 -14.66 9.68 -15 9 C-15.5775 9.350625 -16.155 9.70125 -16.75 10.0625 C-19.39786506 11.16577711 -20.33185326 10.80156509 -23 10 C-19.21388115 8.29984684 -15.42029661 6.61705366 -11.625 4.9375 C-10.00464844 4.20950195 -10.00464844 4.20950195 -8.3515625 3.46679688 C-7.3203125 3.01240234 -6.2890625 2.55800781 -5.2265625 2.08984375 C-4.27346191 1.66566162 -3.32036133 1.24147949 -2.33837891 0.80444336 C-1.56671387 0.53897705 -0.79504883 0.27351074 0 0 Z " fill="#B38463" transform="translate(714,515)"/>
<path d="M0 0 C0.99 0.33 1.98 0.66 3 1 C-5.14729167 7.61560084 -13.265179 14.16308432 -22 20 C-22.33 19.01 -22.66 18.02 -23 17 C-22.01 17 -21.02 17 -20 17 C-19.67 16.01 -19.34 15.02 -19 14 C-18.34 14.33 -17.68 14.66 -17 15 C-16.7525 14.401875 -16.505 13.80375 -16.25 13.1875 C-14.81927475 10.68373081 -13.4308418 9.51927612 -11 8 C-10.34 8 -9.68 8 -9 8 C-9 7.34 -9 6.68 -9 6 C-7.35 5.67 -5.7 5.34 -4 5 C-3.67 4.01 -3.34 3.02 -3 2 C-2.01 2 -1.02 2 0 2 C0 1.34 0 0.68 0 0 Z " fill="#A34F11" transform="translate(940,407)"/>
<path d="M0 0 C1.32 0.66 2.64 1.32 4 2 C3.67 2.66 3.34 3.32 3 4 C2.97416666 7.63142972 3.02861218 11.2492314 3.12695312 14.87890625 C3.15670439 16.91949275 3.08495976 18.96096585 3 21 C2.34 21.66 1.68 22.32 1 23 C0.71125 23.845625 0.4225 24.69125 0.125 25.5625 C-1 28 -1 28 -3.125 28.8125 C-3.74375 28.874375 -4.3625 28.93625 -5 29 C-3.98617067 25.80253827 -2.91647879 22.82961673 -1.4375 19.8125 C0.34365348 15.69715823 0.34538421 11.98730611 0.1875 7.5625 C0.17396484 6.83095703 0.16042969 6.09941406 0.14648438 5.34570312 C0.11153874 3.56347578 0.05774805 1.78163427 0 0 Z " fill="#C95D10" transform="translate(988,316)"/>
<path d="M0 0 C0.66 0.33 1.32 0.66 2 1 C-0.9237342 4.35688001 -2.69172404 5.2267197 -7 6 C-7.6496875 6.7115625 -7.6496875 6.7115625 -8.3125 7.4375 C-10.63809571 9.59082936 -12.95893077 9.80369945 -16.0078125 10.45703125 C-18.2255011 10.9614122 -18.2255011 10.9614122 -20.75 12.6875 C-23 14 -23 14 -25.140625 13.58203125 C-26.06101562 13.29392578 -26.06101562 13.29392578 -27 13 C-26.32420898 12.67725098 -25.64841797 12.35450195 -24.95214844 12.02197266 C-21.88458735 10.55668798 -18.81729101 9.09084994 -15.75 7.625 C-14.68652344 7.11710937 -13.62304688 6.60921875 -12.52734375 6.0859375 C-11.50253906 5.59609375 -10.47773437 5.10625 -9.421875 4.6015625 C-8.47924805 4.15119629 -7.53662109 3.70083008 -6.56542969 3.23681641 C-4.95119379 2.45857896 -3.35410815 1.64257992 -1.78613281 0.77490234 C-0.90199707 0.39132568 -0.90199707 0.39132568 0 0 Z " fill="#1A232F" transform="translate(661,289)"/>
<path d="M0 0 C-7.59 4.62 -15.18 9.24 -23 14 C-23.33 13.01 -23.66 12.02 -24 11 C-18.375 7 -18.375 7 -15 7 C-15 6.34 -15 5.68 -15 5 C-13.02 4.67 -11.04 4.34 -9 4 C-8.67 3.01 -8.34 2.02 -8 1 C-4.72679179 -1.25738497 -4.10538299 -1.02634575 0 0 Z " fill="#C96829" transform="translate(885,449)"/>
<path d="M0 0 C3.63 0 7.26 0 11 0 C8.08422373 2.91577627 4.48891465 3.56105977 0.625 4.6875 C-0.14328125 4.92533203 -0.9115625 5.16316406 -1.703125 5.40820312 C-2.44820312 5.62798828 -3.19328125 5.84777344 -3.9609375 6.07421875 C-4.97873291 6.37718872 -4.97873291 6.37718872 -6.01708984 6.6862793 C-8.29129433 7.04608633 -9.82377339 6.69470212 -12 6 C-11.67 5.34 -11.34 4.68 -11 4 C-10.01 4 -9.02 4 -8 4 C-7.67 3.01 -7.34 2.02 -7 1 C-4.69 1.33 -2.38 1.66 0 2 C0 1.34 0 0.68 0 0 Z " fill="#BF7C50" transform="translate(613,573)"/>
<path d="M0 0 C3 1 3 1 4.75 4.3125 C6.33072237 8.97563098 6.33072237 8.97563098 5 12 C5 11.34 5 10.68 5 10 C3.03243548 10.03122943 3.03243548 10.03122943 1 11 C-0.3045656 13.99615946 -0.3045656 13.99615946 -1 17 C-1.66 17 -2.32 17 -3 17 C-2.01 11.39 -1.02 5.78 0 0 Z " fill="#25323F" transform="translate(1025,417)"/>
<path d="M0 0 C-0.33 0.99 -0.66 1.98 -1 3 C-1.495 2.835 -1.99 2.67 -2.5 2.5 C-8.75198669 1.24960266 -14.88544579 2.10824404 -21.0625 3.3125 C-21.73087891 3.43044922 -22.39925781 3.54839844 -23.08789062 3.66992188 C-26.5431485 4.32470835 -29.5553996 5.17421719 -32.74609375 6.66796875 C-36 8 -36 8 -38.4375 7.6875 C-38.953125 7.460625 -39.46875 7.23375 -40 7 C-26.1877829 1.78558951 -14.69640837 -0.32820763 0 0 Z " fill="#0D151D" transform="translate(751,165)"/>
<path d="M0 0 C0.71212646 0.04310303 1.42425293 0.08620605 2.15795898 0.13061523 C6.58279969 0.43101349 10.92973346 0.94719338 15.3125 1.625 C15.3125 1.955 15.3125 2.285 15.3125 2.625 C11.11329763 2.67453687 6.91425131 2.71078411 2.71484375 2.73486328 C1.28707922 2.74490427 -0.14066483 2.75853981 -1.56835938 2.77587891 C-3.62374941 2.80021152 -5.67886692 2.81150202 -7.734375 2.8203125 C-9.58820801 2.83602295 -9.58820801 2.83602295 -11.47949219 2.85205078 C-14.50409371 2.63798081 -16.15735651 2.22153159 -18.6875 0.625 C-12.35634021 -0.2794514 -6.36236819 -0.38662505 0 0 Z " fill="#FA8E29" transform="translate(520.6875,590.375)"/>
<path d="M0 0 C2 1 2 1 3 2 C3.99 2.33 4.98 2.66 6 3 C3.64828157 3.82022612 1.2940149 4.6312654 -1.0625 5.4375 C-1.71927734 5.66759766 -2.37605469 5.89769531 -3.05273438 6.13476562 C-7.37626855 7.60434128 -11.46079726 8.48646211 -16 9 C-13.34189385 5.83694895 -10.14902107 4.45854378 -6.4375 2.75 C-5.28121094 2.20859375 -4.12492188 1.6671875 -2.93359375 1.109375 C-1.96550781 0.74328125 -0.99742187 0.3771875 0 0 Z " fill="#101F29" transform="translate(847,727)"/>
<path d="M0 0 C0.7940625 -0.01417969 1.588125 -0.02835937 2.40625 -0.04296875 C4.5 0.1875 4.5 0.1875 6.5 2.1875 C7.1328125 4.5703125 7.1328125 4.5703125 7.625 7.3125 C7.79257812 8.22257812 7.96015625 9.13265625 8.1328125 10.0703125 C8.25398437 10.76898438 8.37515625 11.46765625 8.5 12.1875 C10.48 11.8575 12.46 11.5275 14.5 11.1875 C14.17 12.1775 13.84 13.1675 13.5 14.1875 C11.1875 14.5 11.1875 14.5 8.5 14.1875 C5.6952292 10.78170689 5.00254634 7.50939851 4.5 3.1875 C2.91676312 3.160307 1.33338938 3.14101694 -0.25 3.125 C-1.13171875 3.11339844 -2.0134375 3.10179687 -2.921875 3.08984375 C-5.2818838 3.17923802 -7.24498524 3.51837179 -9.5 4.1875 C-6.36051861 0.90531491 -4.55074316 0.03693785 0 0 Z " fill="#000002" transform="translate(1005.5,426.8125)"/>
<path d="M0 0 C-6.58521637 5.36573186 -12.76237995 5.5780786 -21 5 C-24.75 4 -24.75 4 -27 3 C-23.60231132 1.96841259 -20.47860037 1.86622404 -16.9375 1.875 C-15.89464844 1.87242187 -14.85179687 1.86984375 -13.77734375 1.8671875 C-11 2 -11 2 -8 3 C-8 2.34 -8 1.68 -8 1 C-5.07175348 0.02391783 -3.04386724 -0.08226668 0 0 Z " fill="#B75811" transform="translate(954,270)"/>
<path d="M0 0 C0.66 0.33 1.32 0.66 2 1 C-1.65333143 3.63379708 -4.48521602 5.46884894 -9 6 C-9 6.99 -9 7.98 -9 9 C-10.93108963 10.03290841 -12.870118 11.05098672 -14.8125 12.0625 C-15.89144531 12.63097656 -16.97039063 13.19945312 -18.08203125 13.78515625 C-21 15 -21 15 -24 14 C-17.25 10 -17.25 10 -15 10 C-14.67 9.01 -14.34 8.02 -14 7 C-11.69674163 5.61396842 -9.47372231 4.41140143 -7.0625 3.25 C-6.41603516 2.92128906 -5.76957031 2.59257812 -5.10351562 2.25390625 C-3.43499444 1.43264037 -1.71939715 0.70860004 0 0 Z " fill="#273543" transform="translate(734,373)"/>
<path d="M0 0 C0.66 0.33 1.32 0.66 2 1 C0.77142374 4.68572878 -0.72558154 5.13379472 -4.03515625 6.88671875 C-6.02522814 8.01429428 -7.75441042 9.29015683 -9.5625 10.6875 C-12.62160559 12.9437634 -15.15759051 13.71884809 -19 14 C-15.53233124 10.17483962 -11.54420806 7.54245288 -7.25 4.75 C-6.20392578 4.06164062 -6.20392578 4.06164062 -5.13671875 3.359375 C-3.42725789 2.23534594 -1.71400488 1.11708776 0 0 Z " fill="#B55712" transform="translate(913,406)"/>
<path d="M0 0 C0.56847656 0.37769531 1.13695312 0.75539063 1.72265625 1.14453125 C-0.87570511 2.51098826 -3.47999931 3.86283794 -6.08984375 5.20703125 C-7.19682617 5.79194336 -7.19682617 5.79194336 -8.32617188 6.38867188 C-9.03837891 6.75283203 -9.75058594 7.11699219 -10.484375 7.4921875 C-11.13897705 7.83258057 -11.7935791 8.17297363 -12.46801758 8.52368164 C-14.27734375 9.14453125 -14.27734375 9.14453125 -17.27734375 8.14453125 C-16.94734375 7.15453125 -16.61734375 6.16453125 -16.27734375 5.14453125 C-15.54644531 5.03496094 -14.81554687 4.92539062 -14.0625 4.8125 C-10.34750471 3.92152638 -7.6473297 2.05660194 -4.4609375 0.0078125 C-2.27734375 -0.85546875 -2.27734375 -0.85546875 0 0 Z " fill="#C27D51" transform="translate(767.27734375,511.85546875)"/>
<path d="M0 0 C0.33 0.66 0.66 1.32 1 2 C0.54109375 2.51949219 0.0821875 3.03898438 -0.390625 3.57421875 C-1.00421875 4.27160156 -1.6178125 4.96898437 -2.25 5.6875 C-2.85328125 6.37199219 -3.4565625 7.05648437 -4.078125 7.76171875 C-5.39133295 9.29112557 -6.65576582 10.863425 -7.875 12.46875 C-10.26448639 15.31504997 -12.84678248 17.4968384 -15.75 19.8125 C-16.73484375 20.60269531 -17.7196875 21.39289062 -18.734375 22.20703125 C-19.48203125 22.79871094 -20.2296875 23.39039063 -21 24 C-21.66 23.67 -22.32 23.34 -23 23 C-22.5875 22.62302979 -22.175 22.24605957 -21.75 21.85766602 C-14.13032484 14.87473547 -6.60340175 7.97471521 0 0 Z " fill="#1A2836" transform="translate(996,575)"/>
<path d="M0 0 C0 0.99 0 1.98 0 3 C-0.804375 3.680625 -1.60875 4.36125 -2.4375 5.0625 C-5.9860341 9.13033178 -5.8879544 12.75422879 -6 18 C-7.4370809 18.05422947 -8.87475462 18.09289723 -10.3125 18.125 C-11.51326172 18.15980469 -11.51326172 18.15980469 -12.73828125 18.1953125 C-15 18 -15 18 -18 16 C-15.36 16 -12.72 16 -10 16 C-9.82984375 15.40832031 -9.6596875 14.81664062 -9.484375 14.20703125 C-7.57099876 7.96820341 -5.59188053 3.72792035 0 0 Z " fill="#010309" transform="translate(566,647)"/>
<path d="M0 0 C0 0.66 0 1.32 0 2 C-0.66 2 -1.32 2 -2 2 C-2.33 2.99 -2.66 3.98 -3 5 C-7.26450635 7.6344781 -11.9237556 9.65499928 -17 9 C-14.41994017 6.00641141 -11.45675187 4.54433112 -7.9375 2.8125 C-6.87402344 2.28269531 -5.81054688 1.75289063 -4.71484375 1.20703125 C-2 0 -2 0 0 0 Z " fill="#AB6D4A" transform="translate(796,476)"/>
<path d="M0 0 C0.99 0.66 1.98 1.32 3 2 C-2.61 5.3 -8.22 8.6 -14 12 C-14.33 11.01 -14.66 10.02 -15 9 C-12.625 7.4375 -12.625 7.4375 -10 6 C-9.34 6.33 -8.68 6.66 -8 7 C-8 6.34 -8 5.68 -8 5 C-7.01 5 -6.02 5 -5 5 C-5 4.34 -5 3.68 -5 3 C-2.5 1.375 -2.5 1.375 0 0 Z " fill="#B05C2B" transform="translate(854,464)"/>
<path d="M0 0 C1.46833933 0.38535602 2.93315469 0.78434023 4.39453125 1.1953125 C5.51891602 1.49501953 5.51891602 1.49501953 6.66601562 1.80078125 C8.5161545 2.29572286 10.36203925 2.80651726 12.20703125 3.3203125 C10.20703125 5.3203125 10.20703125 5.3203125 7.20703125 5.6953125 C2.16844926 5.58878857 -2.26773877 3.35985277 -6.79296875 1.3203125 C-3.79296875 -0.6796875 -3.79296875 -0.6796875 0 0 Z " fill="#CA691A" transform="translate(491.79296875,586.6796875)"/>
<path d="M0 0 C0 0.99 0 1.98 0 3 C-4.68944507 6.72560656 -9.93573706 9.68082827 -16 10 C-13.4696646 7.21234235 -10.60660199 5.32536505 -7.4375 3.3125 C-6.46683594 2.68988281 -5.49617187 2.06726563 -4.49609375 1.42578125 C-2 0 -2 0 0 0 Z " fill="#AF5417" transform="translate(889,423)"/>
<path d="M0 0 C0 0.66 0 1.32 0 2 C-0.71027344 2.13277344 -1.42054688 2.26554688 -2.15234375 2.40234375 C-3.07144531 2.57894531 -3.99054687 2.75554688 -4.9375 2.9375 C-5.85402344 3.11152344 -6.77054688 3.28554688 -7.71484375 3.46484375 C-9.95289844 3.77714988 -9.95289844 3.77714988 -11 5 C-14.4375 5.1875 -14.4375 5.1875 -18 5 C-18.66 4.34 -19.32 3.68 -20 3 C-17.22970414 2.49685437 -14.4588348 1.99736162 -11.6875 1.5 C-10.90181641 1.35691406 -10.11613281 1.21382812 -9.30664062 1.06640625 C-8.54931641 0.93105469 -7.79199219 0.79570313 -7.01171875 0.65625 C-6.31522217 0.53056641 -5.61872559 0.40488281 -4.90112305 0.27539062 C-3 0 -3 0 0 0 Z " fill="#F88C34" transform="translate(540,578)"/>
<path d="M0 0 C0 0.66 0 1.32 0 2 C-1.93467942 2.83986084 -3.87285129 3.67168027 -5.8125 4.5 C-7.43091797 5.19609375 -7.43091797 5.19609375 -9.08203125 5.90625 C-12 7 -12 7 -15 7 C-14 4 -14 4 -11.85546875 2.83203125 C-10.97503906 2.49558594 -10.09460938 2.15914062 -9.1875 1.8125 C-8.31480469 1.46832031 -7.44210937 1.12414062 -6.54296875 0.76953125 C-4 0 -4 0 0 0 Z " fill="#C18F6B" transform="translate(682,550)"/>
<path d="M0 0 C1.65 0.33 3.3 0.66 5 1 C1.71414149 3.75979741 -1.62228796 5.18309468 -5.625 6.6875 C-7.34589844 7.34298828 -7.34589844 7.34298828 -9.1015625 8.01171875 C-12 9 -12 9 -14 9 C-13.67 8.01 -13.34 7.02 -13 6 C-12.01 6.33 -11.02 6.66 -10 7 C-9.67 6.01 -9.34 5.02 -9 4 C-7.68 4.33 -6.36 4.66 -5 5 C-4.67 4.01 -4.34 3.02 -4 2 C-3.01 2.33 -2.02 2.66 -1 3 C-0.67 2.01 -0.34 1.02 0 0 Z " fill="#A07559" transform="translate(706,538)"/>
<path d="M0 0 C0.33 1.32 0.66 2.64 1 4 C-3.455 7.96 -3.455 7.96 -8 12 C-8.99 11.67 -9.98 11.34 -11 11 C-7.37 7.37 -3.74 3.74 0 0 Z " fill="#CD5F13" transform="translate(972,358)"/>
<path d="M0 0 C1.0859375 3.75 1.0859375 3.75 0.3125 6 C-1.73828722 9.12500909 -3.63429936 11.54476645 -7.25 12.75 C-8.11625 12.87375 -8.11625 12.87375 -9 13 C-9 12.34 -9 11.68 -9 11 C-8.34 11 -7.68 11 -7 11 C-6.6596875 10.2265625 -6.6596875 10.2265625 -6.3125 9.4375 C-4.5024447 6.07596873 -2.26003596 3.07088856 0 0 Z " fill="#BC550D" transform="translate(982,345)"/>
<path d="M0 0 C-2.51974253 0.65035371 -5.04065935 1.29537493 -7.5625 1.9375 C-8.26697266 2.11990234 -8.97144531 2.30230469 -9.69726562 2.49023438 C-14.12137098 3.6115514 -18.47055438 4.43456329 -23 5 C-18.08878449 0.08878449 -6.48964052 -2.16321351 0 0 Z " fill="#3A5066" transform="translate(649,659)"/>
<path d="M0 0 C-2 2 -2 2 -5.375 2.875 C-9.04460048 3.68825308 -9.04460048 3.68825308 -11.0625 6.1875 C-12.0215625 7.0846875 -12.0215625 7.0846875 -13 8 C-16.25 7.75 -16.25 7.75 -19 7 C-15.91942417 4.94628278 -12.84433538 3.39804639 -9.5 1.8125 C-7.78296875 0.98685547 -7.78296875 0.98685547 -6.03125 0.14453125 C-3 -1 -3 -1 0 0 Z " fill="#141C26" transform="translate(700,179)"/>
<path d="M0 0 C-4.99327746 5.1246795 -8.94072393 5.84653748 -16 6 C-13.10600531 3.65788337 -10.32844572 2.13137829 -6.875 0.75 C-6.00617187 0.39421875 -5.13734375 0.0384375 -4.2421875 -0.328125 C-2 -1 -2 -1 0 0 Z " fill="#A2785B" transform="translate(691,527)"/>
<path d="M0 0 C-6.20918975 3.24571282 -12.05829437 3.66944259 -19 4 C-13.55876233 0.37250822 -6.39681498 -2.13227166 0 0 Z " fill="#314152" transform="translate(528,468)"/>
<path d="M0 0 C-3.24481751 2.16321167 -6.35055759 3.6314591 -10 5 C-10.99 4.67 -11.98 4.34 -13 4 C-8.70699742 -0.75296714 -6.19220493 -1.54805123 0 0 Z " fill="#B18662" transform="translate(660,560)"/>
<path d="M0 0 C-2.89946645 2.36003083 -5.63511165 3.8019677 -9.125 5.125 C-12.61215468 6.44998542 -12.61215468 6.44998542 -16 8 C-16.66 7.34 -17.32 6.68 -18 6 C-13.05172827 2.70115218 -5.91723373 -1.97241124 0 0 Z " fill="#F9B883" transform="translate(729,512)"/>
<path d="M0 0 C-2.28703308 1.19725883 -4.57884862 2.38297018 -6.875 3.5625 C-7.52597656 3.90474609 -8.17695312 4.24699219 -8.84765625 4.59960938 C-10.53529857 5.46082891 -12.26579593 6.23686703 -14 7 C-14.66 6.67 -15.32 6.34 -16 6 C-3.98257081 -1.9912854 -3.98257081 -1.9912854 0 0 Z " fill="#405469" transform="translate(662,412)"/>
<path d="M0 0 C1.32 0.66 2.64 1.32 4 2 C2.04669132 3.03041513 0.08718472 4.0490893 -1.875 5.0625 C-2.96554687 5.63097656 -4.05609375 6.19945312 -5.1796875 6.78515625 C-6.11039063 7.18605469 -7.04109375 7.58695312 -8 8 C-8.66 7.67 -9.32 7.34 -10 7 C-10 6.34 -10 5.68 -10 5 C-8.35 5 -6.7 5 -5 5 C-5 4.34 -5 3.68 -5 3 C-3.35 2.34 -1.7 1.68 0 1 C0 0.67 0 0.34 0 0 Z " fill="#BA774F" transform="translate(779,504)"/>
<path d="M0 0 C0.99 0.33 1.98 0.66 3 1 C-0.55991828 3.96659857 -4.65222543 6.381348 -9 8 C-9.66 7.67 -10.32 7.34 -11 7 C-8.8709858 4.65808437 -6.95591271 3.16445046 -4 2 C-2.68 2 -1.36 2 0 2 C0 1.34 0 0.68 0 0 Z " fill="#A65D36" transform="translate(823,482)"/>
<path d="M0 0 C-5.18698507 3.45799005 -8.82172178 4.38217218 -15 5 C-14.34 4.34 -13.68 3.68 -13 3 C-12.01 3 -11.02 3 -10 3 C-10 2.34 -10 1.68 -10 1 C-3.71428571 -1.42857143 -3.71428571 -1.42857143 0 0 Z " fill="#324253" transform="translate(509,473)"/>
<path d="M0 0 C-0.25 1.875 -0.25 1.875 -1 4 C-4.17973464 6.35535899 -7.15124621 6.17494335 -11 6 C-8.24029211 2.78034079 -4.3526723 0 0 0 Z " fill="#263240" transform="translate(787,346)"/>
<path d="M0 0 C0 0.66 0 1.32 0 2 C-1.74122549 3.03572896 -3.49336595 4.0531252 -5.25 5.0625 C-6.71179688 5.91521484 -6.71179688 5.91521484 -8.203125 6.78515625 C-11 8 -11 8 -13.359375 7.68359375 C-13.90078125 7.45800781 -14.4421875 7.23242188 -15 7 C-12.87767021 5.82823482 -10.75242209 4.66245215 -8.625 3.5 C-7.72007812 2.99919922 -7.72007812 2.99919922 -6.796875 2.48828125 C-2.2265625 0 -2.2265625 0 0 0 Z " fill="#16212B" transform="translate(722,259)"/>
<path d="M0 0 C7.38461538 -0.36923077 7.38461538 -0.36923077 10.5 1.5 C10.995 1.995 11.49 2.49 12 3 C10.01432292 2.96744792 8.02864583 2.93489583 6.04296875 2.90234375 C3.79694539 2.91736783 3.79694539 2.91736783 1 4 C0.67 2.68 0.34 1.36 0 0 Z " fill="#E06C16" transform="translate(476,575)"/>
<path d="M0 0 C-0.33 0.99 -0.66 1.98 -1 3 C-2.70703125 3.80078125 -2.70703125 3.80078125 -4.8125 4.3125 C-5.84310547 4.58513672 -5.84310547 4.58513672 -6.89453125 4.86328125 C-9.48062429 5.03120937 -10.80739327 4.31556404 -13 3 C-11.21189234 2.30329584 -9.41937948 1.61788811 -7.625 0.9375 C-6.62726562 0.55464844 -5.62953125 0.17179688 -4.6015625 -0.22265625 C-2 -1 -2 -1 0 0 Z " fill="#AE7F5B" transform="translate(660,540)"/>
<path d="M0 0 C0.66 0.33 1.32 0.66 2 1 C1.01 2.485 1.01 2.485 0 4 C-0.99 4 -1.98 4 -3 4 C-3.185625 4.61875 -3.37125 5.2375 -3.5625 5.875 C-5.71437233 9.05602866 -8.37533763 9.19451947 -12 10 C-8.29909479 6.0747975 -4.45040344 3.05419844 0 0 Z " fill="#9D4B13" transform="translate(927,396)"/>
<path d="M0 0 C0 0.66 0 1.32 0 2 C-0.598125 2.268125 -1.19625 2.53625 -1.8125 2.8125 C-4.04383612 3.85257915 -4.04383612 3.85257915 -5.375 5.625 C-7.80395238 7.6802674 -9.93373089 7.20441794 -13 7 C-4.79310345 0 -4.79310345 0 0 0 Z " fill="#1F2A38" transform="translate(762,238)"/>
<path d="M0 0 C0.66 0.33 1.32 0.66 2 1 C1.278125 1.556875 0.55625 2.11375 -0.1875 2.6875 C-3.08111122 4.95415759 -3.08111122 4.95415759 -5.5625 7.8125 C-6.366875 8.534375 -7.17125 9.25625 -8 10 C-9.32 9.67 -10.64 9.34 -12 9 C-8.04 6.03 -4.08 3.06 0 0 Z " fill="#111A24" transform="translate(829,197)"/>
<path d="M0 0 C-0.25 1.875 -0.25 1.875 -1 4 C-4.17973464 6.35535899 -7.15124621 6.17494335 -11 6 C-3.8 0 -3.8 0 0 0 Z " fill="#AF6034" transform="translate(846,449)"/>
<path d="M0 0 C-5.94 3.465 -5.94 3.465 -12 7 C-12 6.01 -12 5.02 -12 4 C-11.01 4 -10.02 4 -9 4 C-8.67 3.01 -8.34 2.02 -8 1 C-4.72679179 -1.25738497 -4.10538299 -1.02634575 0 0 Z " fill="#B55820" transform="translate(885,449)"/>
<path d="M0 0 C0.66 0.33 1.32 0.66 2 1 C1.57910004 6.60461531 1.08386889 11.72086547 -1 17 C-1.66 17 -2.32 17 -3 17 C-2.01 11.39 -1.02 5.78 0 0 Z " fill="#0F1922" transform="translate(1025,417)"/>
<path d="M0 0 C0 0.66 0 1.32 0 2 C-7.28571429 6.57142857 -7.28571429 6.57142857 -12 6 C-11.401875 5.566875 -10.80375 5.13375 -10.1875 4.6875 C-8.00605928 3.12485305 -8.00605928 3.12485305 -6.5625 1.3125 C-4.38249068 -0.51870783 -2.75828756 -0.22364494 0 0 Z " fill="#131C26" transform="translate(696,418)"/>
<path d="M0 0 C2.0625 0.4375 2.0625 0.4375 4 1 C1.87767021 2.17176518 -0.24757791 3.33754785 -2.375 4.5 C-2.97828125 4.83386719 -3.5815625 5.16773438 -4.203125 5.51171875 C-8.7734375 8 -8.7734375 8 -11 8 C-11 7.34 -11 6.68 -11 6 C-10.28972656 5.65066406 -9.57945312 5.30132812 -8.84765625 4.94140625 C-7.92855469 4.48636719 -7.00945313 4.03132813 -6.0625 3.5625 C-4.68771484 2.88380859 -4.68771484 2.88380859 -3.28515625 2.19140625 C-1.09471096 1.19474606 -1.09471096 1.19474606 0 0 Z " fill="#41556B" transform="translate(736,373)"/>
<path d="M0 0 C0 0.66 0 1.32 0 2 C-0.99 2 -1.98 2 -3 2 C-3.33 2.99 -3.66 3.98 -4 5 C-7.22791555 7.1519437 -8.28400809 7.20086443 -12 7 C-9.20232475 3.70861735 -4.40323273 0 0 0 Z " fill="#17202C" transform="translate(837,317)"/>
<path d="M0 0 C5.445 1.485 5.445 1.485 11 3 C11 3.33 11 3.66 11 4 C9.2984375 4.2165625 9.2984375 4.2165625 7.5625 4.4375 C4.19222799 4.61171478 4.19222799 4.61171478 3 6 C1.5 4.6875 1.5 4.6875 0 3 C0 2.01 0 1.02 0 0 Z " fill="#1C2837" transform="translate(537,659)"/>
<path d="M0 0 C-0.598125 0.28875 -1.19625 0.5775 -1.8125 0.875 C-4.19327792 2.04742026 -4.19327792 2.04742026 -7 4 C-10.6875 3.625 -10.6875 3.625 -14 3 C-9.7368213 0.15788087 -5.03577274 -2.0143091 0 0 Z " fill="#A6653D" transform="translate(592,565)"/>
<path d="M0 0 C0.66 0.33 1.32 0.66 2 1 C-2.39042858 4.42453429 -5.2902045 6.58221009 -11 7 C-7.71103088 3.18479582 -4.67184669 1.64379791 0 0 Z " fill="#CC6618" transform="translate(905,413)"/>
<path d="M0 0 C0.66 0.33 1.32 0.66 2 1 C0.04480616 2.17192047 -1.9142539 3.3373929 -3.875 4.5 C-4.96554687 5.1496875 -6.05609375 5.799375 -7.1796875 6.46875 C-10 8 -10 8 -12 8 C-12 7.34 -12 6.68 -12 6 C-10.35 5.67 -8.7 5.34 -7 5 C-7 4.34 -7 3.68 -7 3 C-4.69631264 1.93347808 -2.35981813 0.93578995 0 0 Z " fill="#42566C" transform="translate(810,334)"/>
<path d="M0 0 C-1.11666174 3.34998521 -1.74694925 3.79340222 -4.5625 5.6875 C-5.20316406 6.12449219 -5.84382812 6.56148437 -6.50390625 7.01171875 C-6.99761719 7.33785156 -7.49132812 7.66398438 -8 8 C-8 7.34 -8 6.68 -8 6 C-8.66 5.67 -9.32 5.34 -10 5 C-8.71186658 4.16121545 -7.41936744 3.32913217 -6.125 2.5 C-5.40570312 2.0359375 -4.68640625 1.571875 -3.9453125 1.09375 C-2 0 -2 0 0 0 Z " fill="#0F1724" transform="translate(925,685)"/>
<path d="M0 0 C-2.34591852 2.7710688 -4.14776201 3.52059284 -7.6875 4.1875 C-8.49574219 4.34605469 -9.30398438 4.50460937 -10.13671875 4.66796875 C-11.05904297 4.83232422 -11.05904297 4.83232422 -12 5 C-8.62270271 0.0144659 -5.847905 -0.12995344 0 0 Z " fill="#DBA679" transform="translate(669,537)"/>
<path d="M0 0 C0.66 0 1.32 0 2 0 C2 0.99 2 1.98 2 3 C-0.8125 4.5625 -0.8125 4.5625 -4 6 C-4.99 5.67 -5.98 5.34 -7 5 C-6.67 4.01 -6.34 3.02 -6 2 C-4.7934375 1.7834375 -4.7934375 1.7834375 -3.5625 1.5625 C-1.07896294 1.25864751 -1.07896294 1.25864751 0 0 Z " fill="#BE734C" transform="translate(757,515)"/>
<path d="M0 0 C0.99 0.33 1.98 0.66 3 1 C0.45368965 3.97069541 -2.42230149 5.4775751 -6 7 C-6.66 6.67 -7.32 6.34 -8 6 C-7.01 5.01 -6.02 4.02 -5 3 C-4.34 3.33 -3.68 3.66 -3 4 C-2.67 3.01 -2.34 2.02 -2 1 C-1.34 0.67 -0.68 0.34 0 0 Z " fill="#A86A46" transform="translate(809,489)"/>
<path d="M0 0 C-0.6484375 1.921875 -0.6484375 1.921875 -2 4 C-4.6015625 4.828125 -4.6015625 4.828125 -7.625 5.25 C-8.62789062 5.39953125 -9.63078125 5.5490625 -10.6640625 5.703125 C-11.82035156 5.85007812 -11.82035156 5.85007812 -13 6 C-8.9949489 2.91187205 -5.2064354 0 0 0 Z " fill="#111821" transform="translate(675,403)"/>
<path d="M0 0 C-8.261959 4.59225513 -8.261959 4.59225513 -13 4 C-9.80252047 -0.13791468 -4.89181987 -1.63060662 0 0 Z " fill="#F7AF73" transform="translate(625,555)"/>
<path d="M0 0 C-2 3 -2 3 -5 4 C-7.33299825 4.03954234 -9.66708189 4.04401732 -12 4 C-9.94577945 1.94577945 -8.66990976 1.31862408 -6 0.3125 C-5.29875 0.04050781 -4.5975 -0.23148438 -3.875 -0.51171875 C-2 -1 -2 -1 0 0 Z " fill="#A47351" transform="translate(639,548)"/>
<path d="M0 0 C0.33 0 0.66 0 1 0 C0.58846263 4.97093824 0.20399168 9.44508386 -2 14 C-3.35015859 9.94952424 -2.62084998 7.2079832 -2 3 C-1.34 3 -0.68 3 0 3 C0 2.01 0 1.02 0 0 Z " fill="#99460E" transform="translate(994,338)"/>
<path d="M0 0 C-4.38512875 3.31558515 -7.37458159 4.54996653 -13 5 C-4.68085106 -2.34042553 -4.68085106 -2.34042553 0 0 Z " fill="#F9C593" transform="translate(699,525)"/>
<path d="M0 0 C0 0.99 0 1.98 0 3 C-1.43011973 3.86646667 -2.86940619 4.71781829 -4.3125 5.5625 C-5.51326172 6.27599609 -5.51326172 6.27599609 -6.73828125 7.00390625 C-9 8 -9 8 -12 7 C-8.04 4.69 -4.08 2.38 0 0 Z " fill="#405468" transform="translate(766,380)"/>
<path d="M0 0 C0.680625 0.78375 1.36125 1.5675 2.0625 2.375 C5.51308916 5.45850521 7.56566662 6.04357515 12 7 C12 7.33 12 7.66 12 8 C10.37419034 7.88601335 8.74932843 7.75844341 7.125 7.625 C6.22007812 7.55539062 5.31515625 7.48578125 4.3828125 7.4140625 C2 7 2 7 0 5 C-0.125 2.375 -0.125 2.375 0 0 Z " fill="#3E546B" transform="translate(450,488)"/>
<path d="M0 0 C1.32 0.66 2.64 1.32 4 2 C2.56570999 2.67354499 1.12742943 3.33859701 -0.3125 4 C-1.51326172 4.556875 -1.51326172 4.556875 -2.73828125 5.125 C-5 6 -5 6 -8 6 C-8 5.34 -8 4.68 -8 4 C-6.68 4 -5.36 4 -4 4 C-4 3.34 -4 2.68 -4 2 C-2.68 2 -1.36 2 0 2 C0 1.34 0 0.68 0 0 Z " fill="#293846" transform="translate(633,444)"/>
<path d="M0 0 C0 2.66053211 -0.19335496 4.49940039 -1 7 C-1.66 7.66 -2.32 8.32 -3 9 C-3.99 8.67 -4.98 8.34 -6 8 C-2.25 2.25 -2.25 2.25 0 0 Z " fill="#0D1520" transform="translate(511,287)"/>
<path d="M0 0 C0 0.99 0 1.98 0 3 C-2.5 4.6875 -2.5 4.6875 -5 6 C-5 5.01 -5 4.02 -5 3 C-5.66 2.67 -6.32 2.34 -7 2 C-4 0 -4 0 0 0 Z " fill="#14212E" transform="translate(917,691)"/>
<path d="M0 0 C0.79921875 0.01804687 1.5984375 0.03609375 2.421875 0.0546875 C3.02515625 0.07789063 3.6284375 0.10109375 4.25 0.125 C-2.25 3.375 -2.25 3.375 -4.75 4.125 C-7.0625 3.25 -7.0625 3.25 -8.75 2.125 C-5.68753253 0.34090198 -3.52920727 -0.10380021 0 0 Z " fill="#F79951" transform="translate(554.75,574.875)"/>
<path d="M0 0 C-1.485 1.98 -1.485 1.98 -3 4 C-5.97 3.505 -5.97 3.505 -9 3 C-6.38997624 -0.48003168 -4.1689578 -0.27793052 0 0 Z " fill="#F9A968" transform="translate(569,572)"/>
<path d="M0 0 C0.66 0.33 1.32 0.66 2 1 C1.01 4.3 0.02 7.6 -1 11 C-1.33 10.01 -1.66 9.02 -2 8 C-2.37125 7.0409375 -2.37125 7.0409375 -2.75 6.0625 C-3 4 -3 4 -1.5625 1.75 C-1.046875 1.1725 -0.53125 0.595 0 0 Z " fill="#121C25" transform="translate(1020,543)"/>
<path d="M0 0 C0.33 0.66 0.66 1.32 1 2 C0 4 0 4 -2.06640625 4.8515625 C-3.30197266 5.23441406 -3.30197266 5.23441406 -4.5625 5.625 C-5.38878906 5.88539063 -6.21507812 6.14578125 -7.06640625 6.4140625 C-7.70449219 6.60742188 -8.34257813 6.80078125 -9 7 C-9 6.01 -9 5.02 -9 4 C-7.35 4 -5.7 4 -4 4 C-4 3.34 -4 2.68 -4 2 C-2.68 1.34 -1.36 0.68 0 0 Z " fill="#2F3E52" transform="translate(614,452)"/>
<path d="M0 0 C0.66 0.33 1.32 0.66 2 1 C-0.19909405 3.19909405 -2.56070254 5.07423885 -5 7 C-5.99 6.34 -6.98 5.68 -8 5 C-6.71475739 4.13619741 -5.42157581 3.28419631 -4.125 2.4375 C-3.04605469 1.72400391 -3.04605469 1.72400391 -1.9453125 0.99609375 C-1.30335938 0.66738281 -0.66140625 0.33867187 0 0 Z " fill="#B25724" transform="translate(863,438)"/>
<path d="M0 0 C-2.22825644 2.22825644 -3.65761628 2.69239369 -6.625 3.625 C-7.44226563 3.88539063 -8.25953125 4.14578125 -9.1015625 4.4140625 C-9.72804688 4.60742188 -10.35453125 4.80078125 -11 5 C-10 2 -10 2 -8.3125 0.8125 C-5.45030907 -0.19313465 -3.01172092 -0.13689641 0 0 Z " fill="#2C3D4D" transform="translate(684,424)"/>
<path d="M0 0 C0.99 0.33 1.98 0.66 3 1 C1.02 3.31 -0.96 5.62 -3 8 C-3.66 7.67 -4.32 7.34 -5 7 C-1.125 1.125 -1.125 1.125 0 0 Z " fill="#1C2834" transform="translate(845,203)"/>
<path d="M0 0 C1.98 0 3.96 0 6 0 C-1.5 5 -1.5 5 -5 5 C-5 4.01 -5 3.02 -5 2 C-3.35 2 -1.7 2 0 2 C0 1.34 0 0.68 0 0 Z " fill="#A3694D" transform="translate(732,527)"/>
<path d="M0 0 C1.65 0 3.3 0 5 0 C2.88229834 2.32947183 0.96664412 3.88750845 -2 5 C-2.99 4.67 -3.98 4.34 -5 4 C-5 3.34 -5 2.68 -5 2 C-3.35 2 -1.7 2 0 2 C0 1.34 0 0.68 0 0 Z " fill="#A46848" transform="translate(792,498)"/>
<path d="M0 0 C-0.763125 0.4125 -1.52625 0.825 -2.3125 1.25 C-4.9366642 2.95875809 -6.30321976 4.41017753 -8 7 C-7.67 4.69 -7.34 2.38 -7 0 C-3.86650268 -1.04449911 -3.01031744 -0.93423645 0 0 Z " fill="#40576D" transform="translate(470,381)"/>
<path d="M0 0 C1.98 0.99 1.98 0.99 4 2 C3.67 2.66 3.34 3.32 3 4 C2.77377919 5.70363822 2.59111527 7.41328701 2.4375 9.125 C2.31181641 10.49011719 2.31181641 10.49011719 2.18359375 11.8828125 C2.12300781 12.58148438 2.06242188 13.28015625 2 14 C1.67 14 1.34 14 1 14 C0.67 9.38 0.34 4.76 0 0 Z " fill="#7F3210" transform="translate(988,316)"/>
<path d="M0 0 C3.23087421 0.55704728 5.02361137 1.33187535 7 4 C7 5.32 7 6.64 7 8 C6.34 8 5.68 8 5 8 C3.7109375 6.50390625 3.7109375 6.50390625 2.375 4.5625 C1.92898438 3.92441406 1.48296875 3.28632813 1.0234375 2.62890625 C0 1 0 1 0 0 Z " fill="#B75B16" transform="translate(915,260)"/>
<path d="M0 0 C0 0.99 0 1.98 0 3 C-3.3 3.66 -6.6 4.32 -10 5 C-8.28489314 1.56978628 -3.75681361 0 0 0 Z " fill="#212A37" transform="translate(732,254)"/>
<path d="M0 0 C4.455 1.98 4.455 1.98 9 4 C9 4.33 9 4.66 9 5 C3.375 5.25 3.375 5.25 0 3 C0 2.01 0 1.02 0 0 Z " fill="#354A5F" transform="translate(550,673)"/>
<path d="M0 0 C0.8353125 0.556875 0.8353125 0.556875 1.6875 1.125 C-4.0625 4.125 -4.0625 4.125 -6.3125 4.125 C-6.6425 3.135 -6.9725 2.145 -7.3125 1.125 C-2.88173077 -1.09038462 -2.88173077 -1.09038462 0 0 Z " fill="#B67B59" transform="translate(744.3125,522.875)"/>
<path d="M0 0 C-2.71182212 2.60334924 -3.89133813 2.99456691 -7.75 3.1875 C-8.8225 3.125625 -9.895 3.06375 -11 3 C-7.63114177 -0.36885823 -4.54278442 -0.10095076 0 0 Z " fill="#2C3D50" transform="translate(605,437)"/>
<path d="M0 0 C0.66 0.33 1.32 0.66 2 1 C-0.23775234 4.3566285 -0.93320048 4.57996014 -4.625 5.6875 C-5.44226563 5.93886719 -6.25953125 6.19023437 -7.1015625 6.44921875 C-7.72804688 6.63097656 -8.35453125 6.81273437 -9 7 C-6.25604436 4.05278838 -3.61662784 1.80831392 0 0 Z " fill="#111822" transform="translate(859,302)"/>
<path d="M0 0 C0.66 0 1.32 0 2 0 C2 2.64 2 5.28 2 8 C1.01 8.33 0.02 8.66 -1 9 C-0.67 6.03 -0.34 3.06 0 0 Z " fill="#D56615" transform="translate(962,249)"/>
<path d="M0 0 C-1.45381897 0.69699552 -2.91322953 1.38233866 -4.375 2.0625 C-5.18710937 2.44535156 -5.99921875 2.82820312 -6.8359375 3.22265625 C-7.55007813 3.47917969 -8.26421875 3.73570312 -9 4 C-9.66 3.67 -10.32 3.34 -11 3 C-7.70039114 0.18922208 -4.22288017 -2.11144009 0 0 Z " fill="#2E4459" transform="translate(749,721)"/>
<path d="M0 0 C-3.20380017 2.13586678 -4.01939967 2.23132175 -7.6875 2.125 C-8.89986328 2.09792969 -8.89986328 2.09792969 -10.13671875 2.0703125 C-11.05904297 2.03550781 -11.05904297 2.03550781 -12 2 C-7.66032699 -0.21504143 -4.80574417 -1.54470348 0 0 Z " fill="#A05D38" transform="translate(563,573)"/>
<path d="M0 0 C0.66 0.33 1.32 0.66 2 1 C0 4 0 4 -2.5 4.8125 C-3.7375 4.9053125 -3.7375 4.9053125 -5 5 C-5.66 4.34 -6.32 3.68 -7 3 C-4.69631264 1.93347808 -2.35981813 0.93578995 0 0 Z " fill="#2D3B4B" transform="translate(592,440)"/>
<path d="M0 0 C2.47598865 1.19805902 2.96367818 2.42179364 3.9375 4.9375 C2.6175 4.6075 1.2975 4.2775 -0.0625 3.9375 C-0.0625 3.2775 -0.0625 2.6175 -0.0625 1.9375 C-1.7125 2.2675 -3.3625 2.5975 -5.0625 2.9375 C-2.64829882 -0.08025148 -2.64829882 -0.08025148 0 0 Z " fill="#1E2B39" transform="translate(897.0625,279.0625)"/>
<path d="M0 0 C0.99 0.33 1.98 0.66 3 1 C2.34 1 1.68 1 1 1 C0.67 2.32 0.34 3.64 0 5 C-2.31 5 -4.62 5 -7 5 C-4.702779 3.25728062 -2.40133271 1.60088848 0 0 Z " fill="#19212C" transform="translate(746,245)"/>
<path d="M0 0 C-1.26418246 0.69965443 -2.53665402 1.38434763 -3.8125 2.0625 C-4.52019531 2.44535156 -5.22789062 2.82820312 -5.95703125 3.22265625 C-8 4 -8 4 -11 3 C-4.03571429 -1.41964286 -4.03571429 -1.41964286 0 0 Z " fill="#394E61" transform="translate(659,199)"/>
<path d="M0 0 C0.66 0.33 1.32 0.66 2 1 C-0.52956528 4.0916909 -3.22454612 4.90931332 -7 6 C-7.33 5.34 -7.66 4.68 -8 4 C-6.71349294 3.30289269 -5.42059335 2.61757124 -4.125 1.9375 C-3.40570312 1.55464844 -2.68640625 1.17179688 -1.9453125 0.77734375 C-1.30335938 0.52082031 -0.66140625 0.26429688 0 0 Z " fill="#27384A" transform="translate(798,598)"/>
<path d="M0 0 C2.475 0.495 2.475 0.495 5 1 C5 2.32 5 3.64 5 5 C2.525 4.01 2.525 4.01 0 3 C0 2.01 0 1.02 0 0 Z " fill="#C56214" transform="translate(480,582)"/>
<path d="M0 0 C0 0.99 0 1.98 0 3 C-1.98 3.99 -3.96 4.98 -6 6 C-6 5.01 -6 4.02 -6 3 C-2.66666667 0 -2.66666667 0 0 0 Z " fill="#BB5A13" transform="translate(931,415)"/>
<path d="M0 0 C0 0.66 0 1.32 0 2 C-2.8125 3.5625 -2.8125 3.5625 -6 5 C-6.99 4.67 -7.98 4.34 -9 4 C-2.25 0 -2.25 0 0 0 Z " fill="#3E5367" transform="translate(671,307)"/>
<path d="M0 0 C0 0.99 0 1.98 0 3 C-2.70879335 4.35439668 -5.00933268 4.06501451 -8 4 C-2.7826087 0 -2.7826087 0 0 0 Z " fill="#25303D" transform="translate(703,269)"/>
<path d="M0 0 C0.66 0.33 1.32 0.66 2 1 C-3.625 5 -3.625 5 -7 5 C-7 4.34 -7 3.68 -7 3 C-4.69631264 1.93347808 -2.35981813 0.93578995 0 0 Z " fill="#40566B" transform="translate(777,231)"/>
<path d="M0 0 C-5.17578125 3.22265625 -5.17578125 3.22265625 -7 4 C-7.99 3.67 -8.98 3.34 -10 3 C-3.94594595 -1.97297297 -3.94594595 -1.97297297 0 0 Z " fill="#394F64" transform="translate(648,204)"/>
<path d="M0 0 C-1.0975223 2.99324263 -1.67682892 3.84610901 -4.625 5.25 C-5.40875 5.4975 -6.1925 5.745 -7 6 C-5.52522876 2.59668175 -4.14385429 0 0 0 Z " fill="#263848" transform="translate(915,556)"/>
<path d="M0 0 C0.33 0.99 0.66 1.98 1 3 C-1.31 4.65 -3.62 6.3 -6 8 C-4.55746343 4.63408134 -2.66735273 2.48952921 0 0 Z " fill="#1B2D39" transform="translate(1018,548)"/>
<path d="M0 0 C0.99 0.33 1.98 0.66 3 1 C2.67 3.64 2.34 6.28 2 9 C-0.29013653 5.5647952 -0.17842973 4.014669 0 0 Z " fill="#243A48" transform="translate(448,483)"/>
<path d="M0 0 C0.66 0 1.32 0 2 0 C2.33 1.98 2.66 3.96 3 6 C1.68 6 0.36 6 -1 6 C-1.042721 4.33388095 -1.04063832 2.66617115 -1 1 C-0.67 0.67 -0.34 0.34 0 0 Z " fill="#3F596E" transform="translate(452,473)"/>
<path d="M0 0 C-0.625 1.9375 -0.625 1.9375 -2 4 C-5.125 4.75 -5.125 4.75 -8 5 C-3.16129032 0 -3.16129032 0 0 0 Z " fill="#A04A1A" transform="translate(873,433)"/>
<path d="M0 0 C-1.75 1.5625 -1.75 1.5625 -4 3 C-6.25 2.6875 -6.25 2.6875 -8 2 C-5.14066998 -0.85933002 -3.8625627 -1.2875209 0 0 Z " fill="#334355" transform="translate(666,432)"/>
<path d="M0 0 C0.99 0 1.98 0 3 0 C1.25 5.75 1.25 5.75 -1 8 C-1.125 2.25 -1.125 2.25 0 0 Z " fill="#B75113" transform="translate(988,352)"/>
<path d="M0 0 C0.66 0.33 1.32 0.66 2 1 C0.25 3.0625 0.25 3.0625 -2 5 C-4.25 4.75 -4.25 4.75 -6 4 C-3.94766315 1.7522025 -2.99332739 0.9977758 0 0 Z " fill="#253040" transform="translate(661,289)"/>
<path d="M0 0 C-2.62198774 2.15377564 -4.64404172 3.40072174 -8 4 C-8 3.01 -8 2.02 -8 1 C-5.07175348 0.02391783 -3.04386724 -0.08226668 0 0 Z " fill="#AA4E13" transform="translate(954,270)"/>
</svg>
